<svg aria-hidden="true" style="position: absolute; width: 0; height: 0; overflow: hidden;" version="1.1" xmlns="http://www.w3.org/2000/svg" xmlns:xlink="http://www.w3.org/1999/xlink">
<defs>
<symbol id="icon-1" viewBox="0 0 32 32">
<path d="M0 1.185c0-0.655 0.531-1.185 1.185-1.185h29.63c0.655 0 1.185 0.531 1.185 1.185s-0.531 1.185-1.185 1.185h-29.63c-0.655 0-1.185-0.531-1.185-1.185zM0 7.111c0-0.655 0.531-1.185 1.185-1.185h29.63c0.655 0 1.185 0.531 1.185 1.185s-0.531 1.185-1.185 1.185h-29.63c-0.655 0-1.185-0.531-1.185-1.185zM1.185 11.852c-0.655 0-1.185 0.531-1.185 1.185s0.531 1.185 1.185 1.185h29.63c0.655 0 1.185-0.531 1.185-1.185s-0.531-1.185-1.185-1.185h-29.63z"></path>
<path d="M0 18.963c0-0.655 0.531-1.185 1.185-1.185h29.63c0.655 0 1.185 0.531 1.185 1.185s-0.531 1.185-1.185 1.185h-29.63c-0.655 0-1.185-0.531-1.185-1.185zM0 24.889c0-0.655 0.531-1.185 1.185-1.185h29.63c0.655 0 1.185 0.531 1.185 1.185s-0.531 1.185-1.185 1.185h-29.63c-0.655 0-1.185-0.531-1.185-1.185zM1.185 29.63c-0.655 0-1.185 0.531-1.185 1.185s0.531 1.185 1.185 1.185h29.63c0.655 0 1.185-0.531 1.185-1.185s-0.531-1.185-1.185-1.185h-29.63z"></path>
</symbol>
<symbol id="icon-2" viewBox="0 0 32 32">
<path d="M1.185 0h13.037c0.655 0 1.185 0.531 1.185 1.185s-0.531 1.185-1.185 1.185h-13.037c-0.655 0-1.185-0.531-1.185-1.185s0.531-1.185 1.185-1.185z"></path>
<path d="M17.778 0h13.037c0.655 0 1.185 0.531 1.185 1.185s-0.531 1.185-1.185 1.185h-13.037c-0.655 0-1.185-0.531-1.185-1.185s0.531-1.185 1.185-1.185z"></path>
<path d="M1.185 17.778h13.037c0.655 0 1.185 0.531 1.185 1.185s-0.531 1.185-1.185 1.185h-13.037c-0.655 0-1.185-0.531-1.185-1.185s0.531-1.185 1.185-1.185z"></path>
<path d="M17.778 17.778h13.037c0.655 0 1.185 0.531 1.185 1.185s-0.531 1.185-1.185 1.185h-13.037c-0.655 0-1.185-0.531-1.185-1.185s0.531-1.185 1.185-1.185z"></path>
<path d="M1.185 11.852h13.037c0.655 0 1.185 0.531 1.185 1.185s-0.531 1.185-1.185 1.185h-13.037c-0.655 0-1.185-0.531-1.185-1.185s0.531-1.185 1.185-1.185z"></path>
<path d="M17.778 11.852h13.037c0.655 0 1.185 0.531 1.185 1.185s-0.531 1.185-1.185 1.185h-13.037c-0.655 0-1.185-0.531-1.185-1.185s0.531-1.185 1.185-1.185z"></path>
<path d="M1.185 29.63h13.037c0.655 0 1.185 0.531 1.185 1.185s-0.531 1.185-1.185 1.185h-13.037c-0.655 0-1.185-0.531-1.185-1.185s0.531-1.185 1.185-1.185z"></path>
<path d="M17.778 29.63h13.037c0.655 0 1.185 0.531 1.185 1.185s-0.531 1.185-1.185 1.185h-13.037c-0.655 0-1.185-0.531-1.185-1.185s0.531-1.185 1.185-1.185z"></path>
<path d="M1.185 5.926h13.037c0.655 0 1.185 0.531 1.185 1.185s-0.531 1.185-1.185 1.185h-13.037c-0.655 0-1.185-0.531-1.185-1.185s0.531-1.185 1.185-1.185z"></path>
<path d="M17.778 5.926h13.037c0.655 0 1.185 0.531 1.185 1.185s-0.531 1.185-1.185 1.185h-13.037c-0.655 0-1.185-0.531-1.185-1.185s0.531-1.185 1.185-1.185z"></path>
<path d="M1.185 23.704h13.037c0.655 0 1.185 0.531 1.185 1.185s-0.531 1.185-1.185 1.185h-13.037c-0.655 0-1.185-0.531-1.185-1.185s0.531-1.185 1.185-1.185z"></path>
<path d="M17.778 23.704h13.037c0.655 0 1.185 0.531 1.185 1.185s-0.531 1.185-1.185 1.185h-13.037c-0.655 0-1.185-0.531-1.185-1.185s0.531-1.185 1.185-1.185z"></path>
</symbol>
<symbol id="icon-3" viewBox="0 0 32 32">
<path d="M1.185 29.63h29.63c0.655 0 1.185 0.531 1.185 1.185s-0.531 1.185-1.185 1.185h-29.63c-0.655 0-1.185-0.531-1.185-1.185s0.531-1.185 1.185-1.185z"></path>
<path d="M1.185 5.926h29.63c0.655 0 1.185 0.531 1.185 1.185s-0.531 1.185-1.185 1.185h-29.63c-0.655 0-1.185-0.531-1.185-1.185s0.531-1.185 1.185-1.185z"></path>
<path d="M1.185 11.852h13.037c0.655 0 1.185 0.531 1.185 1.185s-0.531 1.185-1.185 1.185h-13.037c-0.655 0-1.185-0.531-1.185-1.185s0.531-1.185 1.185-1.185z"></path>
<path d="M17.778 11.852h13.037c0.655 0 1.185 0.531 1.185 1.185s-0.531 1.185-1.185 1.185h-13.037c-0.655 0-1.185-0.531-1.185-1.185s0.531-1.185 1.185-1.185z"></path>
<path d="M1.185 0h13.037c0.655 0 1.185 0.531 1.185 1.185s-0.531 1.185-1.185 1.185h-13.037c-0.655 0-1.185-0.531-1.185-1.185s0.531-1.185 1.185-1.185z"></path>
<path d="M17.778 0h13.037c0.655 0 1.185 0.531 1.185 1.185s-0.531 1.185-1.185 1.185h-13.037c-0.655 0-1.185-0.531-1.185-1.185s0.531-1.185 1.185-1.185z"></path>
<path d="M1.185 17.778h13.037c0.655 0 1.185 0.531 1.185 1.185s-0.531 1.185-1.185 1.185h-13.037c-0.655 0-1.185-0.531-1.185-1.185s0.531-1.185 1.185-1.185z"></path>
<path d="M17.778 17.778h13.037c0.655 0 1.185 0.531 1.185 1.185s-0.531 1.185-1.185 1.185h-13.037c-0.655 0-1.185-0.531-1.185-1.185s0.531-1.185 1.185-1.185z"></path>
<path d="M1.185 23.704h13.037c0.655 0 1.185 0.531 1.185 1.185s-0.531 1.185-1.185 1.185h-13.037c-0.655 0-1.185-0.531-1.185-1.185s0.531-1.185 1.185-1.185z"></path>
<path d="M17.778 23.704h13.037c0.655 0 1.185 0.531 1.185 1.185s-0.531 1.185-1.185 1.185h-13.037c-0.655 0-1.185-0.531-1.185-1.185s0.531-1.185 1.185-1.185z"></path>
</symbol>
<symbol id="icon-4" viewBox="0 0 32 32">
<path d="M1.185 23.704h29.63c0.655 0 1.185 0.531 1.185 1.185s-0.531 1.185-1.185 1.185h-29.63c-0.655 0-1.185-0.531-1.185-1.185s0.531-1.185 1.185-1.185z"></path>
<path d="M1.185 0h29.63c0.655 0 1.185 0.531 1.185 1.185s-0.531 1.185-1.185 1.185h-29.63c-0.655 0-1.185-0.531-1.185-1.185s0.531-1.185 1.185-1.185z"></path>
<path d="M1.185 5.926h13.037c0.655 0 1.185 0.531 1.185 1.185s-0.531 1.185-1.185 1.185h-13.037c-0.655 0-1.185-0.531-1.185-1.185s0.531-1.185 1.185-1.185z"></path>
<path d="M17.778 5.926h13.037c0.655 0 1.185 0.531 1.185 1.185s-0.531 1.185-1.185 1.185h-13.037c-0.655 0-1.185-0.531-1.185-1.185s0.531-1.185 1.185-1.185z"></path>
<path d="M1.185 11.852h13.037c0.655 0 1.185 0.531 1.185 1.185s-0.531 1.185-1.185 1.185h-13.037c-0.655 0-1.185-0.531-1.185-1.185s0.531-1.185 1.185-1.185z"></path>
<path d="M17.778 11.852h13.037c0.655 0 1.185 0.531 1.185 1.185s-0.531 1.185-1.185 1.185h-13.037c-0.655 0-1.185-0.531-1.185-1.185s0.531-1.185 1.185-1.185z"></path>
<path d="M1.185 17.778h13.037c0.655 0 1.185 0.531 1.185 1.185s-0.531 1.185-1.185 1.185h-13.037c-0.655 0-1.185-0.531-1.185-1.185s0.531-1.185 1.185-1.185z"></path>
<path d="M1.185 29.63h13.037c0.655 0 1.185 0.531 1.185 1.185s-0.531 1.185-1.185 1.185h-13.037c-0.655 0-1.185-0.531-1.185-1.185s0.531-1.185 1.185-1.185z"></path>
<path d="M17.778 17.778h13.037c0.655 0 1.185 0.531 1.185 1.185s-0.531 1.185-1.185 1.185h-13.037c-0.655 0-1.185-0.531-1.185-1.185s0.531-1.185 1.185-1.185z"></path>
<path d="M17.778 29.63h13.037c0.655 0 1.185 0.531 1.185 1.185s-0.531 1.185-1.185 1.185h-13.037c-0.655 0-1.185-0.531-1.185-1.185s0.531-1.185 1.185-1.185z"></path>
</symbol>
<symbol id="icon-5" viewBox="0 0 32 32">
<path d="M0 18.963c0-0.655 0.531-1.185 1.185-1.185h29.63c0.655 0 1.185 0.531 1.185 1.185s-0.531 1.185-1.185 1.185h-29.63c-0.655 0-1.185-0.531-1.185-1.185zM0 24.889c0-0.655 0.531-1.185 1.185-1.185h29.63c0.655 0 1.185 0.531 1.185 1.185s-0.531 1.185-1.185 1.185h-29.63c-0.655 0-1.185-0.531-1.185-1.185zM1.185 29.63c-0.655 0-1.185 0.531-1.185 1.185s0.531 1.185 1.185 1.185h29.63c0.655 0 1.185-0.531 1.185-1.185s-0.531-1.185-1.185-1.185h-29.63z"></path>
<path d="M1.185 5.926h29.63c0.655 0 1.185 0.531 1.185 1.185s-0.531 1.185-1.185 1.185h-29.63c-0.655 0-1.185-0.531-1.185-1.185s0.531-1.185 1.185-1.185z"></path>
<path d="M1.185 0h13.037c0.655 0 1.185 0.531 1.185 1.185s-0.531 1.185-1.185 1.185h-13.037c-0.655 0-1.185-0.531-1.185-1.185s0.531-1.185 1.185-1.185z"></path>
<path d="M17.778 0h13.037c0.655 0 1.185 0.531 1.185 1.185s-0.531 1.185-1.185 1.185h-13.037c-0.655 0-1.185-0.531-1.185-1.185s0.531-1.185 1.185-1.185z"></path>
<path d="M1.185 11.852h13.037c0.655 0 1.185 0.531 1.185 1.185s-0.531 1.185-1.185 1.185h-13.037c-0.655 0-1.185-0.531-1.185-1.185s0.531-1.185 1.185-1.185z"></path>
<path d="M17.778 11.852h13.037c0.655 0 1.185 0.531 1.185 1.185s-0.531 1.185-1.185 1.185h-13.037c-0.655 0-1.185-0.531-1.185-1.185s0.531-1.185 1.185-1.185z"></path>
</symbol>
<symbol id="icon-6" viewBox="0 0 32 32">
<path d="M0 1.185c0-0.655 0.531-1.185 1.185-1.185h29.63c0.655 0 1.185 0.531 1.185 1.185s-0.531 1.185-1.185 1.185h-29.63c-0.655 0-1.185-0.531-1.185-1.185zM0 7.111c0-0.655 0.531-1.185 1.185-1.185h29.63c0.655 0 1.185 0.531 1.185 1.185s-0.531 1.185-1.185 1.185h-29.63c-0.655 0-1.185-0.531-1.185-1.185zM1.185 11.852c-0.655 0-1.185 0.531-1.185 1.185s0.531 1.185 1.185 1.185h29.63c0.655 0 1.185-0.531 1.185-1.185s-0.531-1.185-1.185-1.185h-29.63z"></path>
<path d="M1.185 23.704h29.63c0.655 0 1.185 0.531 1.185 1.185s-0.531 1.185-1.185 1.185h-29.63c-0.655 0-1.185-0.531-1.185-1.185s0.531-1.185 1.185-1.185z"></path>
<path d="M1.185 17.778h13.037c0.655 0 1.185 0.531 1.185 1.185s-0.531 1.185-1.185 1.185h-13.037c-0.655 0-1.185-0.531-1.185-1.185s0.531-1.185 1.185-1.185z"></path>
<path d="M17.778 17.778h13.037c0.655 0 1.185 0.531 1.185 1.185s-0.531 1.185-1.185 1.185h-13.037c-0.655 0-1.185-0.531-1.185-1.185s0.531-1.185 1.185-1.185z"></path>
<path d="M1.185 29.63h13.037c0.655 0 1.185 0.531 1.185 1.185s-0.531 1.185-1.185 1.185h-13.037c-0.655 0-1.185-0.531-1.185-1.185s0.531-1.185 1.185-1.185z"></path>
<path d="M17.778 29.63h13.037c0.655 0 1.185 0.531 1.185 1.185s-0.531 1.185-1.185 1.185h-13.037c-0.655 0-1.185-0.531-1.185-1.185s0.531-1.185 1.185-1.185z"></path>
</symbol>
<symbol id="icon-7" viewBox="0 0 32 32">
<path d="M1.185 0h13.037c0.655 0 1.185 0.531 1.185 1.185s-0.531 1.185-1.185 1.185h-13.037c-0.655 0-1.185-0.531-1.185-1.185s0.531-1.185 1.185-1.185z"></path>
<path d="M17.778 0h13.037c0.655 0 1.185 0.531 1.185 1.185s-0.531 1.185-1.185 1.185h-13.037c-0.655 0-1.185-0.531-1.185-1.185s0.531-1.185 1.185-1.185z"></path>
<path d="M1.185 11.852h13.037c0.655 0 1.185 0.531 1.185 1.185s-0.531 1.185-1.185 1.185h-13.037c-0.655 0-1.185-0.531-1.185-1.185s0.531-1.185 1.185-1.185z"></path>
<path d="M17.778 11.852h13.037c0.655 0 1.185 0.531 1.185 1.185s-0.531 1.185-1.185 1.185h-13.037c-0.655 0-1.185-0.531-1.185-1.185s0.531-1.185 1.185-1.185z"></path>
<path d="M1.185 5.926h13.037c0.655 0 1.185 0.531 1.185 1.185s-0.531 1.185-1.185 1.185h-13.037c-0.655 0-1.185-0.531-1.185-1.185s0.531-1.185 1.185-1.185z"></path>
<path d="M17.778 5.926h13.037c0.655 0 1.185 0.531 1.185 1.185s-0.531 1.185-1.185 1.185h-13.037c-0.655 0-1.185-0.531-1.185-1.185s0.531-1.185 1.185-1.185z"></path>
<path d="M1.185 23.704h29.63c0.655 0 1.185 0.531 1.185 1.185s-0.531 1.185-1.185 1.185h-29.63c-0.655 0-1.185-0.531-1.185-1.185s0.531-1.185 1.185-1.185z"></path>
<path d="M1.185 17.778h13.037c0.655 0 1.185 0.531 1.185 1.185s-0.531 1.185-1.185 1.185h-13.037c-0.655 0-1.185-0.531-1.185-1.185s0.531-1.185 1.185-1.185z"></path>
<path d="M17.778 17.778h13.037c0.655 0 1.185 0.531 1.185 1.185s-0.531 1.185-1.185 1.185h-13.037c-0.655 0-1.185-0.531-1.185-1.185s0.531-1.185 1.185-1.185z"></path>
<path d="M1.185 29.63h13.037c0.655 0 1.185 0.531 1.185 1.185s-0.531 1.185-1.185 1.185h-13.037c-0.655 0-1.185-0.531-1.185-1.185s0.531-1.185 1.185-1.185z"></path>
<path d="M17.778 29.63h13.037c0.655 0 1.185 0.531 1.185 1.185s-0.531 1.185-1.185 1.185h-13.037c-0.655 0-1.185-0.531-1.185-1.185s0.531-1.185 1.185-1.185z"></path>
</symbol>
<symbol id="icon-8" viewBox="0 0 32 32">
<path d="M1.185 17.778h13.037c0.655 0 1.185 0.531 1.185 1.185s-0.531 1.185-1.185 1.185h-13.037c-0.655 0-1.185-0.531-1.185-1.185s0.531-1.185 1.185-1.185z"></path>
<path d="M17.778 17.778h13.037c0.655 0 1.185 0.531 1.185 1.185s-0.531 1.185-1.185 1.185h-13.037c-0.655 0-1.185-0.531-1.185-1.185s0.531-1.185 1.185-1.185z"></path>
<path d="M1.185 29.63h13.037c0.655 0 1.185 0.531 1.185 1.185s-0.531 1.185-1.185 1.185h-13.037c-0.655 0-1.185-0.531-1.185-1.185s0.531-1.185 1.185-1.185z"></path>
<path d="M17.778 29.63h13.037c0.655 0 1.185 0.531 1.185 1.185s-0.531 1.185-1.185 1.185h-13.037c-0.655 0-1.185-0.531-1.185-1.185s0.531-1.185 1.185-1.185z"></path>
<path d="M1.185 23.704h13.037c0.655 0 1.185 0.531 1.185 1.185s-0.531 1.185-1.185 1.185h-13.037c-0.655 0-1.185-0.531-1.185-1.185s0.531-1.185 1.185-1.185z"></path>
<path d="M17.778 23.704h13.037c0.655 0 1.185 0.531 1.185 1.185s-0.531 1.185-1.185 1.185h-13.037c-0.655 0-1.185-0.531-1.185-1.185s0.531-1.185 1.185-1.185z"></path>
<path d="M1.185 5.926h29.63c0.655 0 1.185 0.531 1.185 1.185s-0.531 1.185-1.185 1.185h-29.63c-0.655 0-1.185-0.531-1.185-1.185s0.531-1.185 1.185-1.185z"></path>
<path d="M1.185 0h13.037c0.655 0 1.185 0.531 1.185 1.185s-0.531 1.185-1.185 1.185h-13.037c-0.655 0-1.185-0.531-1.185-1.185s0.531-1.185 1.185-1.185z"></path>
<path d="M17.778 0h13.037c0.655 0 1.185 0.531 1.185 1.185s-0.531 1.185-1.185 1.185h-13.037c-0.655 0-1.185-0.531-1.185-1.185s0.531-1.185 1.185-1.185z"></path>
<path d="M1.185 11.852h13.037c0.655 0 1.185 0.531 1.185 1.185s-0.531 1.185-1.185 1.185h-13.037c-0.655 0-1.185-0.531-1.185-1.185s0.531-1.185 1.185-1.185z"></path>
<path d="M17.778 11.852h13.037c0.655 0 1.185 0.531 1.185 1.185s-0.531 1.185-1.185 1.185h-13.037c-0.655 0-1.185-0.531-1.185-1.185s0.531-1.185 1.185-1.185z"></path>
</symbol>
<symbol id="icon-9" viewBox="0 0 32 32">
<path d="M0 18.963c0-0.655 0.531-1.185 1.185-1.185h29.63c0.655 0 1.185 0.531 1.185 1.185s-0.531 1.185-1.185 1.185h-29.63c-0.655 0-1.185-0.531-1.185-1.185zM0 24.889c0-0.655 0.531-1.185 1.185-1.185h29.63c0.655 0 1.185 0.531 1.185 1.185s-0.531 1.185-1.185 1.185h-29.63c-0.655 0-1.185-0.531-1.185-1.185zM1.185 29.63c-0.655 0-1.185 0.531-1.185 1.185s0.531 1.185 1.185 1.185h29.63c0.655 0 1.185-0.531 1.185-1.185s-0.531-1.185-1.185-1.185h-29.63z"></path>
<path d="M1.185 0h29.63c0.655 0 1.185 0.531 1.185 1.185s-0.531 1.185-1.185 1.185h-29.63c-0.655 0-1.185-0.531-1.185-1.185s0.531-1.185 1.185-1.185z"></path>
<path d="M1.185 5.926h29.63c0.655 0 1.185 0.531 1.185 1.185s-0.531 1.185-1.185 1.185h-29.63c-0.655 0-1.185-0.531-1.185-1.185s0.531-1.185 1.185-1.185z"></path>
<path d="M1.185 11.852h13.037c0.655 0 1.185 0.531 1.185 1.185s-0.531 1.185-1.185 1.185h-13.037c-0.655 0-1.185-0.531-1.185-1.185s0.531-1.185 1.185-1.185z"></path>
<path d="M17.778 11.852h13.037c0.655 0 1.185 0.531 1.185 1.185s-0.531 1.185-1.185 1.185h-13.037c-0.655 0-1.185-0.531-1.185-1.185s0.531-1.185 1.185-1.185z"></path>
</symbol>
<symbol id="icon-10" viewBox="0 0 32 32">
<path d="M0 1.185c0-0.655 0.531-1.185 1.185-1.185h29.63c0.655 0 1.185 0.531 1.185 1.185s-0.531 1.185-1.185 1.185h-29.63c-0.655 0-1.185-0.531-1.185-1.185zM0 7.111c0-0.655 0.531-1.185 1.185-1.185h29.63c0.655 0 1.185 0.531 1.185 1.185s-0.531 1.185-1.185 1.185h-29.63c-0.655 0-1.185-0.531-1.185-1.185zM1.185 11.852c-0.655 0-1.185 0.531-1.185 1.185s0.531 1.185 1.185 1.185h29.63c0.655 0 1.185-0.531 1.185-1.185s-0.531-1.185-1.185-1.185h-29.63z"></path>
<path d="M1.185 23.704h29.63c0.655 0 1.185 0.531 1.185 1.185s-0.531 1.185-1.185 1.185h-29.63c-0.655 0-1.185-0.531-1.185-1.185s0.531-1.185 1.185-1.185z"></path>
<path d="M1.185 29.63h29.63c0.655 0 1.185 0.531 1.185 1.185s-0.531 1.185-1.185 1.185h-29.63c-0.655 0-1.185-0.531-1.185-1.185s0.531-1.185 1.185-1.185z"></path>
<path d="M1.185 17.778h13.037c0.655 0 1.185 0.531 1.185 1.185s-0.531 1.185-1.185 1.185h-13.037c-0.655 0-1.185-0.531-1.185-1.185s0.531-1.185 1.185-1.185z"></path>
<path d="M17.778 17.778h13.037c0.655 0 1.185 0.531 1.185 1.185s-0.531 1.185-1.185 1.185h-13.037c-0.655 0-1.185-0.531-1.185-1.185s0.531-1.185 1.185-1.185z"></path>
</symbol>
<symbol id="icon-11" viewBox="0 0 32 32">
<path d="M1.185 0h13.037c0.655 0 1.185 0.531 1.185 1.185s-0.531 1.185-1.185 1.185h-13.037c-0.655 0-1.185-0.531-1.185-1.185s0.531-1.185 1.185-1.185z"></path>
<path d="M17.778 0h13.037c0.655 0 1.185 0.531 1.185 1.185s-0.531 1.185-1.185 1.185h-13.037c-0.655 0-1.185-0.531-1.185-1.185s0.531-1.185 1.185-1.185z"></path>
<path d="M1.185 11.852h13.037c0.655 0 1.185 0.531 1.185 1.185s-0.531 1.185-1.185 1.185h-13.037c-0.655 0-1.185-0.531-1.185-1.185s0.531-1.185 1.185-1.185z"></path>
<path d="M17.778 11.852h13.037c0.655 0 1.185 0.531 1.185 1.185s-0.531 1.185-1.185 1.185h-13.037c-0.655 0-1.185-0.531-1.185-1.185s0.531-1.185 1.185-1.185z"></path>
<path d="M1.185 5.926h13.037c0.655 0 1.185 0.531 1.185 1.185s-0.531 1.185-1.185 1.185h-13.037c-0.655 0-1.185-0.531-1.185-1.185s0.531-1.185 1.185-1.185z"></path>
<path d="M17.778 5.926h13.037c0.655 0 1.185 0.531 1.185 1.185s-0.531 1.185-1.185 1.185h-13.037c-0.655 0-1.185-0.531-1.185-1.185s0.531-1.185 1.185-1.185z"></path>
<path d="M0 18.963c0-0.655 0.531-1.185 1.185-1.185h29.63c0.655 0 1.185 0.531 1.185 1.185s-0.531 1.185-1.185 1.185h-29.63c-0.655 0-1.185-0.531-1.185-1.185zM0 24.889c0-0.655 0.531-1.185 1.185-1.185h29.63c0.655 0 1.185 0.531 1.185 1.185s-0.531 1.185-1.185 1.185h-29.63c-0.655 0-1.185-0.531-1.185-1.185zM1.185 29.63c-0.655 0-1.185 0.531-1.185 1.185s0.531 1.185 1.185 1.185h29.63c0.655 0 1.185-0.531 1.185-1.185s-0.531-1.185-1.185-1.185h-29.63z"></path>
</symbol>
<symbol id="icon-12" viewBox="0 0 32 32">
<path d="M1.185 17.778h13.037c0.655 0 1.185 0.531 1.185 1.185s-0.531 1.185-1.185 1.185h-13.037c-0.655 0-1.185-0.531-1.185-1.185s0.531-1.185 1.185-1.185z"></path>
<path d="M17.778 17.778h13.037c0.655 0 1.185 0.531 1.185 1.185s-0.531 1.185-1.185 1.185h-13.037c-0.655 0-1.185-0.531-1.185-1.185s0.531-1.185 1.185-1.185z"></path>
<path d="M1.185 29.63h13.037c0.655 0 1.185 0.531 1.185 1.185s-0.531 1.185-1.185 1.185h-13.037c-0.655 0-1.185-0.531-1.185-1.185s0.531-1.185 1.185-1.185z"></path>
<path d="M17.778 29.63h13.037c0.655 0 1.185 0.531 1.185 1.185s-0.531 1.185-1.185 1.185h-13.037c-0.655 0-1.185-0.531-1.185-1.185s0.531-1.185 1.185-1.185z"></path>
<path d="M1.185 23.704h13.037c0.655 0 1.185 0.531 1.185 1.185s-0.531 1.185-1.185 1.185h-13.037c-0.655 0-1.185-0.531-1.185-1.185s0.531-1.185 1.185-1.185z"></path>
<path d="M17.778 23.704h13.037c0.655 0 1.185 0.531 1.185 1.185s-0.531 1.185-1.185 1.185h-13.037c-0.655 0-1.185-0.531-1.185-1.185s0.531-1.185 1.185-1.185z"></path>
<path d="M0 1.185c0-0.655 0.531-1.185 1.185-1.185h29.63c0.655 0 1.185 0.531 1.185 1.185s-0.531 1.185-1.185 1.185h-29.63c-0.655 0-1.185-0.531-1.185-1.185zM0 7.111c0-0.655 0.531-1.185 1.185-1.185h29.63c0.655 0 1.185 0.531 1.185 1.185s-0.531 1.185-1.185 1.185h-29.63c-0.655 0-1.185-0.531-1.185-1.185zM1.185 11.852c-0.655 0-1.185 0.531-1.185 1.185s0.531 1.185 1.185 1.185h29.63c0.655 0 1.185-0.531 1.185-1.185s-0.531-1.185-1.185-1.185h-29.63z"></path>
</symbol>
<symbol id="icon-13" viewBox="0 0 32 32">
<path d="M1.185 17.778h29.63c0.655 0 1.185 0.531 1.185 1.185s-0.531 1.185-1.185 1.185h-29.63c-0.655 0-1.185-0.531-1.185-1.185s0.531-1.185 1.185-1.185z"></path>
<path d="M0 1.185c0-0.655 0.531-1.185 1.185-1.185h29.63c0.655 0 1.185 0.531 1.185 1.185s-0.531 1.185-1.185 1.185h-29.63c-0.655 0-1.185-0.531-1.185-1.185zM0 7.111c0-0.655 0.531-1.185 1.185-1.185h29.63c0.655 0 1.185 0.531 1.185 1.185s-0.531 1.185-1.185 1.185h-29.63c-0.655 0-1.185-0.531-1.185-1.185zM1.185 11.852c-0.655 0-1.185 0.531-1.185 1.185s0.531 1.185 1.185 1.185h29.63c0.655 0 1.185-0.531 1.185-1.185s-0.531-1.185-1.185-1.185h-29.63z"></path>
<path d="M1.185 29.63h29.63c0.655 0 1.185 0.531 1.185 1.185s-0.531 1.185-1.185 1.185h-29.63c-0.655 0-1.185-0.531-1.185-1.185s0.531-1.185 1.185-1.185z"></path>
<path d="M1.185 23.704h13.037c0.655 0 1.185 0.531 1.185 1.185s-0.531 1.185-1.185 1.185h-13.037c-0.655 0-1.185-0.531-1.185-1.185s0.531-1.185 1.185-1.185z"></path>
<path d="M17.778 23.704h13.037c0.655 0 1.185 0.531 1.185 1.185s-0.531 1.185-1.185 1.185h-13.037c-0.655 0-1.185-0.531-1.185-1.185s0.531-1.185 1.185-1.185z"></path>
</symbol>
<symbol id="icon-14" viewBox="0 0 32 32">
<path d="M1.185 0h29.63c0.655 0 1.185 0.531 1.185 1.185s-0.531 1.185-1.185 1.185h-29.63c-0.655 0-1.185-0.531-1.185-1.185s0.531-1.185 1.185-1.185z"></path>
<path d="M0 18.963c0-0.655 0.531-1.185 1.185-1.185h29.63c0.655 0 1.185 0.531 1.185 1.185s-0.531 1.185-1.185 1.185h-29.63c-0.655 0-1.185-0.531-1.185-1.185zM0 24.889c0-0.655 0.531-1.185 1.185-1.185h29.63c0.655 0 1.185 0.531 1.185 1.185s-0.531 1.185-1.185 1.185h-29.63c-0.655 0-1.185-0.531-1.185-1.185zM1.185 29.63c-0.655 0-1.185 0.531-1.185 1.185s0.531 1.185 1.185 1.185h29.63c0.655 0 1.185-0.531 1.185-1.185s-0.531-1.185-1.185-1.185h-29.63z"></path>
<path d="M1.185 11.852h29.63c0.655 0 1.185 0.531 1.185 1.185s-0.531 1.185-1.185 1.185h-29.63c-0.655 0-1.185-0.531-1.185-1.185s0.531-1.185 1.185-1.185z"></path>
<path d="M1.185 5.926h13.037c0.655 0 1.185 0.531 1.185 1.185s-0.531 1.185-1.185 1.185h-13.037c-0.655 0-1.185-0.531-1.185-1.185s0.531-1.185 1.185-1.185z"></path>
<path d="M17.778 5.926h13.037c0.655 0 1.185 0.531 1.185 1.185s-0.531 1.185-1.185 1.185h-13.037c-0.655 0-1.185-0.531-1.185-1.185s0.531-1.185 1.185-1.185z"></path>
</symbol>
<symbol id="icon-15" viewBox="0 0 32 32">
<path d="M1.185 0h13.037c0.655 0 1.185 0.531 1.185 1.185s-0.531 1.185-1.185 1.185h-13.037c-0.655 0-1.185-0.531-1.185-1.185s0.531-1.185 1.185-1.185z"></path>
<path d="M17.778 0h13.037c0.655 0 1.185 0.531 1.185 1.185s-0.531 1.185-1.185 1.185h-13.037c-0.655 0-1.185-0.531-1.185-1.185s0.531-1.185 1.185-1.185z"></path>
<path d="M1.185 11.852h13.037c0.655 0 1.185 0.531 1.185 1.185s-0.531 1.185-1.185 1.185h-13.037c-0.655 0-1.185-0.531-1.185-1.185s0.531-1.185 1.185-1.185z"></path>
<path d="M17.778 11.852h13.037c0.655 0 1.185 0.531 1.185 1.185s-0.531 1.185-1.185 1.185h-13.037c-0.655 0-1.185-0.531-1.185-1.185s0.531-1.185 1.185-1.185z"></path>
<path d="M1.185 5.926h13.037c0.655 0 1.185 0.531 1.185 1.185s-0.531 1.185-1.185 1.185h-13.037c-0.655 0-1.185-0.531-1.185-1.185s0.531-1.185 1.185-1.185z"></path>
<path d="M17.778 5.926h13.037c0.655 0 1.185 0.531 1.185 1.185s-0.531 1.185-1.185 1.185h-13.037c-0.655 0-1.185-0.531-1.185-1.185s0.531-1.185 1.185-1.185z"></path>
<path d="M1.185 17.778h29.63c0.655 0 1.185 0.531 1.185 1.185s-0.531 1.185-1.185 1.185h-29.63c-0.655 0-1.185-0.531-1.185-1.185s0.531-1.185 1.185-1.185z"></path>
<path d="M1.185 23.704h13.037c0.655 0 1.185 0.531 1.185 1.185s-0.531 1.185-1.185 1.185h-13.037c-0.655 0-1.185-0.531-1.185-1.185s0.531-1.185 1.185-1.185z"></path>
<path d="M17.778 23.704h13.037c0.655 0 1.185 0.531 1.185 1.185s-0.531 1.185-1.185 1.185h-13.037c-0.655 0-1.185-0.531-1.185-1.185s0.531-1.185 1.185-1.185z"></path>
<path d="M1.185 29.63h13.037c0.655 0 1.185 0.531 1.185 1.185s-0.531 1.185-1.185 1.185h-13.037c-0.655 0-1.185-0.531-1.185-1.185s0.531-1.185 1.185-1.185z"></path>
<path d="M17.778 29.63h13.037c0.655 0 1.185 0.531 1.185 1.185s-0.531 1.185-1.185 1.185h-13.037c-0.655 0-1.185-0.531-1.185-1.185s0.531-1.185 1.185-1.185z"></path>
</symbol>
<symbol id="icon-16" viewBox="0 0 32 32">
<path d="M1.185 11.852h29.63c0.655 0 1.185 0.531 1.185 1.185s-0.531 1.185-1.185 1.185h-29.63c-0.655 0-1.185-0.531-1.185-1.185s0.531-1.185 1.185-1.185z"></path>
<path d="M1.185 0h13.037c0.655 0 1.185 0.531 1.185 1.185s-0.531 1.185-1.185 1.185h-13.037c-0.655 0-1.185-0.531-1.185-1.185s0.531-1.185 1.185-1.185z"></path>
<path d="M17.778 0h13.037c0.655 0 1.185 0.531 1.185 1.185s-0.531 1.185-1.185 1.185h-13.037c-0.655 0-1.185-0.531-1.185-1.185s0.531-1.185 1.185-1.185z"></path>
<path d="M1.185 5.926h13.037c0.655 0 1.185 0.531 1.185 1.185s-0.531 1.185-1.185 1.185h-13.037c-0.655 0-1.185-0.531-1.185-1.185s0.531-1.185 1.185-1.185z"></path>
<path d="M17.778 5.926h13.037c0.655 0 1.185 0.531 1.185 1.185s-0.531 1.185-1.185 1.185h-13.037c-0.655 0-1.185-0.531-1.185-1.185s0.531-1.185 1.185-1.185z"></path>
<path d="M1.185 17.778h13.037c0.655 0 1.185 0.531 1.185 1.185s-0.531 1.185-1.185 1.185h-13.037c-0.655 0-1.185-0.531-1.185-1.185s0.531-1.185 1.185-1.185z"></path>
<path d="M17.778 17.778h13.037c0.655 0 1.185 0.531 1.185 1.185s-0.531 1.185-1.185 1.185h-13.037c-0.655 0-1.185-0.531-1.185-1.185s0.531-1.185 1.185-1.185z"></path>
<path d="M1.185 29.63h13.037c0.655 0 1.185 0.531 1.185 1.185s-0.531 1.185-1.185 1.185h-13.037c-0.655 0-1.185-0.531-1.185-1.185s0.531-1.185 1.185-1.185z"></path>
<path d="M17.778 29.63h13.037c0.655 0 1.185 0.531 1.185 1.185s-0.531 1.185-1.185 1.185h-13.037c-0.655 0-1.185-0.531-1.185-1.185s0.531-1.185 1.185-1.185z"></path>
<path d="M1.185 23.704h13.037c0.655 0 1.185 0.531 1.185 1.185s-0.531 1.185-1.185 1.185h-13.037c-0.655 0-1.185-0.531-1.185-1.185s0.531-1.185 1.185-1.185z"></path>
<path d="M17.778 23.704h13.037c0.655 0 1.185 0.531 1.185 1.185s-0.531 1.185-1.185 1.185h-13.037c-0.655 0-1.185-0.531-1.185-1.185s0.531-1.185 1.185-1.185z"></path>
</symbol>
<symbol id="icon-17" viewBox="0 0 32 32">
<path d="M1.185 29.63h29.63c0.655 0 1.185 0.531 1.185 1.185s-0.531 1.185-1.185 1.185h-29.63c-0.655 0-1.185-0.531-1.185-1.185s0.531-1.185 1.185-1.185z"></path>
<path d="M1.185 17.778h13.037c0.655 0 1.185 0.531 1.185 1.185s-0.531 1.185-1.185 1.185h-13.037c-0.655 0-1.185-0.531-1.185-1.185s0.531-1.185 1.185-1.185z"></path>
<path d="M17.778 17.778h13.037c0.655 0 1.185 0.531 1.185 1.185s-0.531 1.185-1.185 1.185h-13.037c-0.655 0-1.185-0.531-1.185-1.185s0.531-1.185 1.185-1.185z"></path>
<path d="M1.185 23.704h13.037c0.655 0 1.185 0.531 1.185 1.185s-0.531 1.185-1.185 1.185h-13.037c-0.655 0-1.185-0.531-1.185-1.185s0.531-1.185 1.185-1.185z"></path>
<path d="M17.778 23.704h13.037c0.655 0 1.185 0.531 1.185 1.185s-0.531 1.185-1.185 1.185h-13.037c-0.655 0-1.185-0.531-1.185-1.185s0.531-1.185 1.185-1.185z"></path>
<path d="M1.185 5.926h29.63c0.655 0 1.185 0.531 1.185 1.185s-0.531 1.185-1.185 1.185h-29.63c-0.655 0-1.185-0.531-1.185-1.185s0.531-1.185 1.185-1.185z"></path>
<path d="M1.185 11.852h29.63c0.655 0 1.185 0.531 1.185 1.185s-0.531 1.185-1.185 1.185h-29.63c-0.655 0-1.185-0.531-1.185-1.185s0.531-1.185 1.185-1.185z"></path>
<path d="M1.185 0h13.037c0.655 0 1.185 0.531 1.185 1.185s-0.531 1.185-1.185 1.185h-13.037c-0.655 0-1.185-0.531-1.185-1.185s0.531-1.185 1.185-1.185z"></path>
<path d="M17.778 0h13.037c0.655 0 1.185 0.531 1.185 1.185s-0.531 1.185-1.185 1.185h-13.037c-0.655 0-1.185-0.531-1.185-1.185s0.531-1.185 1.185-1.185z"></path>
</symbol>
<symbol id="icon-18" viewBox="0 0 32 32">
<path d="M17.778 5.926h13.037c0.655 0 1.185 0.531 1.185 1.185s-0.531 1.185-1.185 1.185h-13.037c-0.655 0-1.185-0.531-1.185-1.185s0.531-1.185 1.185-1.185z"></path>
<path d="M17.778 11.852h13.037c0.655 0 1.185 0.531 1.185 1.185s-0.531 1.185-1.185 1.185h-13.037c-0.655 0-1.185-0.531-1.185-1.185s0.531-1.185 1.185-1.185z"></path>
<path d="M1.185 0h29.63c0.655 0 1.185 0.531 1.185 1.185s-0.531 1.185-1.185 1.185h-29.63c-0.655 0-1.185-0.531-1.185-1.185s0.531-1.185 1.185-1.185z"></path>
<path d="M1.185 5.926h13.037c0.655 0 1.185 0.531 1.185 1.185s-0.531 1.185-1.185 1.185h-13.037c-0.655 0-1.185-0.531-1.185-1.185s0.531-1.185 1.185-1.185z"></path>
<path d="M1.185 11.852h13.037c0.655 0 1.185 0.531 1.185 1.185s-0.531 1.185-1.185 1.185h-13.037c-0.655 0-1.185-0.531-1.185-1.185s0.531-1.185 1.185-1.185z"></path>
<path d="M1.185 23.704h29.63c0.655 0 1.185 0.531 1.185 1.185s-0.531 1.185-1.185 1.185h-29.63c-0.655 0-1.185-0.531-1.185-1.185s0.531-1.185 1.185-1.185z"></path>
<path d="M1.185 17.778h29.63c0.655 0 1.185 0.531 1.185 1.185s-0.531 1.185-1.185 1.185h-29.63c-0.655 0-1.185-0.531-1.185-1.185s0.531-1.185 1.185-1.185z"></path>
<path d="M1.185 29.63h13.037c0.655 0 1.185 0.531 1.185 1.185s-0.531 1.185-1.185 1.185h-13.037c-0.655 0-1.185-0.531-1.185-1.185s0.531-1.185 1.185-1.185z"></path>
<path d="M17.778 29.63h13.037c0.655 0 1.185 0.531 1.185 1.185s-0.531 1.185-1.185 1.185h-13.037c-0.655 0-1.185-0.531-1.185-1.185s0.531-1.185 1.185-1.185z"></path>
</symbol>
<symbol id="icon-19" viewBox="0 0 32 32">
<path d="M1.185 23.704h29.63c0.655 0 1.185 0.531 1.185 1.185s-0.531 1.185-1.185 1.185h-29.63c-0.655 0-1.185-0.531-1.185-1.185s0.531-1.185 1.185-1.185z"></path>
<path d="M1.185 29.63h29.63c0.655 0 1.185 0.531 1.185 1.185s-0.531 1.185-1.185 1.185h-29.63c-0.655 0-1.185-0.531-1.185-1.185s0.531-1.185 1.185-1.185z"></path>
<path d="M1.185 17.778h13.037c0.655 0 1.185 0.531 1.185 1.185s-0.531 1.185-1.185 1.185h-13.037c-0.655 0-1.185-0.531-1.185-1.185s0.531-1.185 1.185-1.185z"></path>
<path d="M17.778 17.778h13.037c0.655 0 1.185 0.531 1.185 1.185s-0.531 1.185-1.185 1.185h-13.037c-0.655 0-1.185-0.531-1.185-1.185s0.531-1.185 1.185-1.185z"></path>
<path d="M1.185 0h13.037c0.655 0 1.185 0.531 1.185 1.185s-0.531 1.185-1.185 1.185h-13.037c-0.655 0-1.185-0.531-1.185-1.185s0.531-1.185 1.185-1.185z"></path>
<path d="M17.778 0h13.037c0.655 0 1.185 0.531 1.185 1.185s-0.531 1.185-1.185 1.185h-13.037c-0.655 0-1.185-0.531-1.185-1.185s0.531-1.185 1.185-1.185z"></path>
<path d="M1.185 11.852h13.037c0.655 0 1.185 0.531 1.185 1.185s-0.531 1.185-1.185 1.185h-13.037c-0.655 0-1.185-0.531-1.185-1.185s0.531-1.185 1.185-1.185z"></path>
<path d="M17.778 11.852h13.037c0.655 0 1.185 0.531 1.185 1.185s-0.531 1.185-1.185 1.185h-13.037c-0.655 0-1.185-0.531-1.185-1.185s0.531-1.185 1.185-1.185z"></path>
<path d="M1.185 5.926h13.037c0.655 0 1.185 0.531 1.185 1.185s-0.531 1.185-1.185 1.185h-13.037c-0.655 0-1.185-0.531-1.185-1.185s0.531-1.185 1.185-1.185z"></path>
<path d="M17.778 5.926h13.037c0.655 0 1.185 0.531 1.185 1.185s-0.531 1.185-1.185 1.185h-13.037c-0.655 0-1.185-0.531-1.185-1.185s0.531-1.185 1.185-1.185z"></path>
</symbol>
<symbol id="icon-20" viewBox="0 0 32 32">
<path d="M1.185 5.926h29.63c0.655 0 1.185 0.531 1.185 1.185s-0.531 1.185-1.185 1.185h-29.63c-0.655 0-1.185-0.531-1.185-1.185s0.531-1.185 1.185-1.185z"></path>
<path d="M1.185 0h29.63c0.655 0 1.185 0.531 1.185 1.185s-0.531 1.185-1.185 1.185h-29.63c-0.655 0-1.185-0.531-1.185-1.185s0.531-1.185 1.185-1.185z"></path>
<path d="M1.185 11.852h13.037c0.655 0 1.185 0.531 1.185 1.185s-0.531 1.185-1.185 1.185h-13.037c-0.655 0-1.185-0.531-1.185-1.185s0.531-1.185 1.185-1.185z"></path>
<path d="M17.778 11.852h13.037c0.655 0 1.185 0.531 1.185 1.185s-0.531 1.185-1.185 1.185h-13.037c-0.655 0-1.185-0.531-1.185-1.185s0.531-1.185 1.185-1.185z"></path>
<path d="M1.185 17.778h13.037c0.655 0 1.185 0.531 1.185 1.185s-0.531 1.185-1.185 1.185h-13.037c-0.655 0-1.185-0.531-1.185-1.185s0.531-1.185 1.185-1.185z"></path>
<path d="M17.778 17.778h13.037c0.655 0 1.185 0.531 1.185 1.185s-0.531 1.185-1.185 1.185h-13.037c-0.655 0-1.185-0.531-1.185-1.185s0.531-1.185 1.185-1.185z"></path>
<path d="M1.185 29.63h13.037c0.655 0 1.185 0.531 1.185 1.185s-0.531 1.185-1.185 1.185h-13.037c-0.655 0-1.185-0.531-1.185-1.185s0.531-1.185 1.185-1.185z"></path>
<path d="M17.778 29.63h13.037c0.655 0 1.185 0.531 1.185 1.185s-0.531 1.185-1.185 1.185h-13.037c-0.655 0-1.185-0.531-1.185-1.185s0.531-1.185 1.185-1.185z"></path>
<path d="M1.185 23.704h13.037c0.655 0 1.185 0.531 1.185 1.185s-0.531 1.185-1.185 1.185h-13.037c-0.655 0-1.185-0.531-1.185-1.185s0.531-1.185 1.185-1.185z"></path>
<path d="M17.778 23.704h13.037c0.655 0 1.185 0.531 1.185 1.185s-0.531 1.185-1.185 1.185h-13.037c-0.655 0-1.185-0.531-1.185-1.185s0.531-1.185 1.185-1.185z"></path>
</symbol>
<symbol id="icon-21" viewBox="0 0 32 32">
<path d="M1.185 29.63h29.63c0.655 0 1.185 0.531 1.185 1.185s-0.531 1.185-1.185 1.185h-29.63c-0.655 0-1.185-0.531-1.185-1.185s0.531-1.185 1.185-1.185z"></path>
<path d="M1.185 17.778h13.037c0.655 0 1.185 0.531 1.185 1.185s-0.531 1.185-1.185 1.185h-13.037c-0.655 0-1.185-0.531-1.185-1.185s0.531-1.185 1.185-1.185z"></path>
<path d="M17.778 17.778h13.037c0.655 0 1.185 0.531 1.185 1.185s-0.531 1.185-1.185 1.185h-13.037c-0.655 0-1.185-0.531-1.185-1.185s0.531-1.185 1.185-1.185z"></path>
<path d="M1.185 23.704h13.037c0.655 0 1.185 0.531 1.185 1.185s-0.531 1.185-1.185 1.185h-13.037c-0.655 0-1.185-0.531-1.185-1.185s0.531-1.185 1.185-1.185z"></path>
<path d="M17.778 23.704h13.037c0.655 0 1.185 0.531 1.185 1.185s-0.531 1.185-1.185 1.185h-13.037c-0.655 0-1.185-0.531-1.185-1.185s0.531-1.185 1.185-1.185z"></path>
<path d="M1.185 11.852h29.63c0.655 0 1.185 0.531 1.185 1.185s-0.531 1.185-1.185 1.185h-29.63c-0.655 0-1.185-0.531-1.185-1.185s0.531-1.185 1.185-1.185z"></path>
<path d="M1.185 0h29.63c0.655 0 1.185 0.531 1.185 1.185s-0.531 1.185-1.185 1.185h-29.63c-0.655 0-1.185-0.531-1.185-1.185s0.531-1.185 1.185-1.185z"></path>
<path d="M1.185 5.926h13.037c0.655 0 1.185 0.531 1.185 1.185s-0.531 1.185-1.185 1.185h-13.037c-0.655 0-1.185-0.531-1.185-1.185s0.531-1.185 1.185-1.185z"></path>
<path d="M17.778 5.926h13.037c0.655 0 1.185 0.531 1.185 1.185s-0.531 1.185-1.185 1.185h-13.037c-0.655 0-1.185-0.531-1.185-1.185s0.531-1.185 1.185-1.185z"></path>
</symbol>
<symbol id="icon-22" viewBox="0 0 32 32">
<path d="M1.185 0h29.63c0.655 0 1.185 0.531 1.185 1.185s-0.531 1.185-1.185 1.185h-29.63c-0.655 0-1.185-0.531-1.185-1.185s0.531-1.185 1.185-1.185z"></path>
<path d="M1.185 5.926h13.037c0.655 0 1.185 0.531 1.185 1.185s-0.531 1.185-1.185 1.185h-13.037c-0.655 0-1.185-0.531-1.185-1.185s0.531-1.185 1.185-1.185z"></path>
<path d="M17.778 5.926h13.037c0.655 0 1.185 0.531 1.185 1.185s-0.531 1.185-1.185 1.185h-13.037c-0.655 0-1.185-0.531-1.185-1.185s0.531-1.185 1.185-1.185z"></path>
<path d="M1.185 11.852h13.037c0.655 0 1.185 0.531 1.185 1.185s-0.531 1.185-1.185 1.185h-13.037c-0.655 0-1.185-0.531-1.185-1.185s0.531-1.185 1.185-1.185z"></path>
<path d="M17.778 11.852h13.037c0.655 0 1.185 0.531 1.185 1.185s-0.531 1.185-1.185 1.185h-13.037c-0.655 0-1.185-0.531-1.185-1.185s0.531-1.185 1.185-1.185z"></path>
<path d="M1.185 29.63h29.63c0.655 0 1.185 0.531 1.185 1.185s-0.531 1.185-1.185 1.185h-29.63c-0.655 0-1.185-0.531-1.185-1.185s0.531-1.185 1.185-1.185z"></path>
<path d="M1.185 17.778h29.63c0.655 0 1.185 0.531 1.185 1.185s-0.531 1.185-1.185 1.185h-29.63c-0.655 0-1.185-0.531-1.185-1.185s0.531-1.185 1.185-1.185z"></path>
<path d="M1.185 23.704h13.037c0.655 0 1.185 0.531 1.185 1.185s-0.531 1.185-1.185 1.185h-13.037c-0.655 0-1.185-0.531-1.185-1.185s0.531-1.185 1.185-1.185z"></path>
<path d="M17.778 23.704h13.037c0.655 0 1.185 0.531 1.185 1.185s-0.531 1.185-1.185 1.185h-13.037c-0.655 0-1.185-0.531-1.185-1.185s0.531-1.185 1.185-1.185z"></path>
</symbol>
<symbol id="icon-23" viewBox="0 0 32 32">
<path d="M1.185 0h29.63c0.655 0 1.185 0.531 1.185 1.185s-0.531 1.185-1.185 1.185h-29.63c-0.655 0-1.185-0.531-1.185-1.185s0.531-1.185 1.185-1.185z"></path>
<path d="M1.185 5.926h13.037c0.655 0 1.185 0.531 1.185 1.185s-0.531 1.185-1.185 1.185h-13.037c-0.655 0-1.185-0.531-1.185-1.185s0.531-1.185 1.185-1.185z"></path>
<path d="M17.778 5.926h13.037c0.655 0 1.185 0.531 1.185 1.185s-0.531 1.185-1.185 1.185h-13.037c-0.655 0-1.185-0.531-1.185-1.185s0.531-1.185 1.185-1.185z"></path>
<path d="M1.185 11.852h13.037c0.655 0 1.185 0.531 1.185 1.185s-0.531 1.185-1.185 1.185h-13.037c-0.655 0-1.185-0.531-1.185-1.185s0.531-1.185 1.185-1.185z"></path>
<path d="M17.778 11.852h13.037c0.655 0 1.185 0.531 1.185 1.185s-0.531 1.185-1.185 1.185h-13.037c-0.655 0-1.185-0.531-1.185-1.185s0.531-1.185 1.185-1.185z"></path>
<path d="M1.185 17.778h13.037c0.655 0 1.185 0.531 1.185 1.185s-0.531 1.185-1.185 1.185h-13.037c-0.655 0-1.185-0.531-1.185-1.185s0.531-1.185 1.185-1.185z"></path>
<path d="M17.778 17.778h13.037c0.655 0 1.185 0.531 1.185 1.185s-0.531 1.185-1.185 1.185h-13.037c-0.655 0-1.185-0.531-1.185-1.185s0.531-1.185 1.185-1.185z"></path>
<path d="M1.185 29.63h13.037c0.655 0 1.185 0.531 1.185 1.185s-0.531 1.185-1.185 1.185h-13.037c-0.655 0-1.185-0.531-1.185-1.185s0.531-1.185 1.185-1.185z"></path>
<path d="M17.778 29.63h13.037c0.655 0 1.185 0.531 1.185 1.185s-0.531 1.185-1.185 1.185h-13.037c-0.655 0-1.185-0.531-1.185-1.185s0.531-1.185 1.185-1.185z"></path>
<path d="M1.185 23.704h13.037c0.655 0 1.185 0.531 1.185 1.185s-0.531 1.185-1.185 1.185h-13.037c-0.655 0-1.185-0.531-1.185-1.185s0.531-1.185 1.185-1.185z"></path>
<path d="M17.778 23.704h13.037c0.655 0 1.185 0.531 1.185 1.185s-0.531 1.185-1.185 1.185h-13.037c-0.655 0-1.185-0.531-1.185-1.185s0.531-1.185 1.185-1.185z"></path>
</symbol>
<symbol id="icon-24" viewBox="0 0 32 32">
<path d="M1.185 29.63h29.63c0.655 0 1.185 0.531 1.185 1.185s-0.531 1.185-1.185 1.185h-29.63c-0.655 0-1.185-0.531-1.185-1.185s0.531-1.185 1.185-1.185z"></path>
<path d="M1.185 17.778h13.037c0.655 0 1.185 0.531 1.185 1.185s-0.531 1.185-1.185 1.185h-13.037c-0.655 0-1.185-0.531-1.185-1.185s0.531-1.185 1.185-1.185z"></path>
<path d="M17.778 17.778h13.037c0.655 0 1.185 0.531 1.185 1.185s-0.531 1.185-1.185 1.185h-13.037c-0.655 0-1.185-0.531-1.185-1.185s0.531-1.185 1.185-1.185z"></path>
<path d="M1.185 23.704h13.037c0.655 0 1.185 0.531 1.185 1.185s-0.531 1.185-1.185 1.185h-13.037c-0.655 0-1.185-0.531-1.185-1.185s0.531-1.185 1.185-1.185z"></path>
<path d="M17.778 23.704h13.037c0.655 0 1.185 0.531 1.185 1.185s-0.531 1.185-1.185 1.185h-13.037c-0.655 0-1.185-0.531-1.185-1.185s0.531-1.185 1.185-1.185z"></path>
<path d="M1.185 0h13.037c0.655 0 1.185 0.531 1.185 1.185s-0.531 1.185-1.185 1.185h-13.037c-0.655 0-1.185-0.531-1.185-1.185s0.531-1.185 1.185-1.185z"></path>
<path d="M17.778 0h13.037c0.655 0 1.185 0.531 1.185 1.185s-0.531 1.185-1.185 1.185h-13.037c-0.655 0-1.185-0.531-1.185-1.185s0.531-1.185 1.185-1.185z"></path>
<path d="M1.185 11.852h13.037c0.655 0 1.185 0.531 1.185 1.185s-0.531 1.185-1.185 1.185h-13.037c-0.655 0-1.185-0.531-1.185-1.185s0.531-1.185 1.185-1.185z"></path>
<path d="M17.778 11.852h13.037c0.655 0 1.185 0.531 1.185 1.185s-0.531 1.185-1.185 1.185h-13.037c-0.655 0-1.185-0.531-1.185-1.185s0.531-1.185 1.185-1.185z"></path>
<path d="M1.185 5.926h13.037c0.655 0 1.185 0.531 1.185 1.185s-0.531 1.185-1.185 1.185h-13.037c-0.655 0-1.185-0.531-1.185-1.185s0.531-1.185 1.185-1.185z"></path>
<path d="M17.778 5.926h13.037c0.655 0 1.185 0.531 1.185 1.185s-0.531 1.185-1.185 1.185h-13.037c-0.655 0-1.185-0.531-1.185-1.185s0.531-1.185 1.185-1.185z"></path>
</symbol>
<symbol id="icon-25" viewBox="0 0 32 32">
<path d="M1.185 29.63h29.63c0.655 0 1.185 0.531 1.185 1.185s-0.531 1.185-1.185 1.185h-29.63c-0.655 0-1.185-0.531-1.185-1.185s0.531-1.185 1.185-1.185z"></path>
<path d="M1.185 17.778h13.037c0.655 0 1.185 0.531 1.185 1.185s-0.531 1.185-1.185 1.185h-13.037c-0.655 0-1.185-0.531-1.185-1.185s0.531-1.185 1.185-1.185z"></path>
<path d="M17.778 17.778h13.037c0.655 0 1.185 0.531 1.185 1.185s-0.531 1.185-1.185 1.185h-13.037c-0.655 0-1.185-0.531-1.185-1.185s0.531-1.185 1.185-1.185z"></path>
<path d="M1.185 23.704h13.037c0.655 0 1.185 0.531 1.185 1.185s-0.531 1.185-1.185 1.185h-13.037c-0.655 0-1.185-0.531-1.185-1.185s0.531-1.185 1.185-1.185z"></path>
<path d="M17.778 23.704h13.037c0.655 0 1.185 0.531 1.185 1.185s-0.531 1.185-1.185 1.185h-13.037c-0.655 0-1.185-0.531-1.185-1.185s0.531-1.185 1.185-1.185z"></path>
<path d="M1.185 0h29.63c0.655 0 1.185 0.531 1.185 1.185s-0.531 1.185-1.185 1.185h-29.63c-0.655 0-1.185-0.531-1.185-1.185s0.531-1.185 1.185-1.185z"></path>
<path d="M1.185 5.926h29.63c0.655 0 1.185 0.531 1.185 1.185s-0.531 1.185-1.185 1.185h-29.63c-0.655 0-1.185-0.531-1.185-1.185s0.531-1.185 1.185-1.185z"></path>
<path d="M1.185 11.852h29.63c0.655 0 1.185 0.531 1.185 1.185s-0.531 1.185-1.185 1.185h-29.63c-0.655 0-1.185-0.531-1.185-1.185s0.531-1.185 1.185-1.185z"></path>
</symbol>
<symbol id="icon-26" viewBox="0 0 32 32">
<path d="M1.185 0h29.63c0.655 0 1.185 0.531 1.185 1.185s-0.531 1.185-1.185 1.185h-29.63c-0.655 0-1.185-0.531-1.185-1.185s0.531-1.185 1.185-1.185z"></path>
<path d="M1.185 5.926h13.037c0.655 0 1.185 0.531 1.185 1.185s-0.531 1.185-1.185 1.185h-13.037c-0.655 0-1.185-0.531-1.185-1.185s0.531-1.185 1.185-1.185z"></path>
<path d="M17.778 5.926h13.037c0.655 0 1.185 0.531 1.185 1.185s-0.531 1.185-1.185 1.185h-13.037c-0.655 0-1.185-0.531-1.185-1.185s0.531-1.185 1.185-1.185z"></path>
<path d="M1.185 11.852h13.037c0.655 0 1.185 0.531 1.185 1.185s-0.531 1.185-1.185 1.185h-13.037c-0.655 0-1.185-0.531-1.185-1.185s0.531-1.185 1.185-1.185z"></path>
<path d="M17.778 11.852h13.037c0.655 0 1.185 0.531 1.185 1.185s-0.531 1.185-1.185 1.185h-13.037c-0.655 0-1.185-0.531-1.185-1.185s0.531-1.185 1.185-1.185z"></path>
<path d="M1.185 17.778h29.63c0.655 0 1.185 0.531 1.185 1.185s-0.531 1.185-1.185 1.185h-29.63c-0.655 0-1.185-0.531-1.185-1.185s0.531-1.185 1.185-1.185z"></path>
<path d="M1.185 23.704h29.63c0.655 0 1.185 0.531 1.185 1.185s-0.531 1.185-1.185 1.185h-29.63c-0.655 0-1.185-0.531-1.185-1.185s0.531-1.185 1.185-1.185z"></path>
<path d="M1.185 29.63h29.63c0.655 0 1.185 0.531 1.185 1.185s-0.531 1.185-1.185 1.185h-29.63c-0.655 0-1.185-0.531-1.185-1.185s0.531-1.185 1.185-1.185z"></path>
</symbol>
<symbol id="icon-27" viewBox="0 0 32 32">
<path d="M1.185 0h29.63c0.655 0 1.185 0.531 1.185 1.185s-0.531 1.185-1.185 1.185h-29.63c-0.655 0-1.185-0.531-1.185-1.185s0.531-1.185 1.185-1.185z"></path>
<path d="M1.185 5.926h13.037c0.655 0 1.185 0.531 1.185 1.185s-0.531 1.185-1.185 1.185h-13.037c-0.655 0-1.185-0.531-1.185-1.185s0.531-1.185 1.185-1.185z"></path>
<path d="M17.778 5.926h13.037c0.655 0 1.185 0.531 1.185 1.185s-0.531 1.185-1.185 1.185h-13.037c-0.655 0-1.185-0.531-1.185-1.185s0.531-1.185 1.185-1.185z"></path>
<path d="M1.185 11.852h13.037c0.655 0 1.185 0.531 1.185 1.185s-0.531 1.185-1.185 1.185h-13.037c-0.655 0-1.185-0.531-1.185-1.185s0.531-1.185 1.185-1.185z"></path>
<path d="M17.778 11.852h13.037c0.655 0 1.185 0.531 1.185 1.185s-0.531 1.185-1.185 1.185h-13.037c-0.655 0-1.185-0.531-1.185-1.185s0.531-1.185 1.185-1.185z"></path>
<path d="M1.185 29.63h29.63c0.655 0 1.185 0.531 1.185 1.185s-0.531 1.185-1.185 1.185h-29.63c-0.655 0-1.185-0.531-1.185-1.185s0.531-1.185 1.185-1.185z"></path>
<path d="M1.185 17.778h13.037c0.655 0 1.185 0.531 1.185 1.185s-0.531 1.185-1.185 1.185h-13.037c-0.655 0-1.185-0.531-1.185-1.185s0.531-1.185 1.185-1.185z"></path>
<path d="M17.778 17.778h13.037c0.655 0 1.185 0.531 1.185 1.185s-0.531 1.185-1.185 1.185h-13.037c-0.655 0-1.185-0.531-1.185-1.185s0.531-1.185 1.185-1.185z"></path>
<path d="M1.185 23.704h13.037c0.655 0 1.185 0.531 1.185 1.185s-0.531 1.185-1.185 1.185h-13.037c-0.655 0-1.185-0.531-1.185-1.185s0.531-1.185 1.185-1.185z"></path>
<path d="M17.778 23.704h13.037c0.655 0 1.185 0.531 1.185 1.185s-0.531 1.185-1.185 1.185h-13.037c-0.655 0-1.185-0.531-1.185-1.185s0.531-1.185 1.185-1.185z"></path>
</symbol>
<symbol id="icon-28" viewBox="0 0 32 32">
<path d="M1.185 23.704h29.63c0.655 0 1.185 0.531 1.185 1.185s-0.531 1.185-1.185 1.185h-29.63c-0.655 0-1.185-0.531-1.185-1.185s0.531-1.185 1.185-1.185z"></path>
<path d="M1.185 17.778h29.63c0.655 0 1.185 0.531 1.185 1.185s-0.531 1.185-1.185 1.185h-29.63c-0.655 0-1.185-0.531-1.185-1.185s0.531-1.185 1.185-1.185z"></path>
<path d="M1.185 29.63h13.037c0.655 0 1.185 0.531 1.185 1.185s-0.531 1.185-1.185 1.185h-13.037c-0.655 0-1.185-0.531-1.185-1.185s0.531-1.185 1.185-1.185z"></path>
<path d="M17.778 29.63h13.037c0.655 0 1.185 0.531 1.185 1.185s-0.531 1.185-1.185 1.185h-13.037c-0.655 0-1.185-0.531-1.185-1.185s0.531-1.185 1.185-1.185z"></path>
<path d="M1.185 5.926h29.63c0.655 0 1.185 0.531 1.185 1.185s-0.531 1.185-1.185 1.185h-29.63c-0.655 0-1.185-0.531-1.185-1.185s0.531-1.185 1.185-1.185z"></path>
<path d="M1.185 11.852h29.63c0.655 0 1.185 0.531 1.185 1.185s-0.531 1.185-1.185 1.185h-29.63c-0.655 0-1.185-0.531-1.185-1.185s0.531-1.185 1.185-1.185z"></path>
<path d="M1.185 0h13.037c0.655 0 1.185 0.531 1.185 1.185s-0.531 1.185-1.185 1.185h-13.037c-0.655 0-1.185-0.531-1.185-1.185s0.531-1.185 1.185-1.185z"></path>
<path d="M17.778 0h13.037c0.655 0 1.185 0.531 1.185 1.185s-0.531 1.185-1.185 1.185h-13.037c-0.655 0-1.185-0.531-1.185-1.185s0.531-1.185 1.185-1.185z"></path>
</symbol>
<symbol id="icon-29" viewBox="0 0 32 32">
<path d="M1.185 23.704h29.63c0.655 0 1.185 0.531 1.185 1.185s-0.531 1.185-1.185 1.185h-29.63c-0.655 0-1.185-0.531-1.185-1.185s0.531-1.185 1.185-1.185z"></path>
<path d="M1.185 29.63h13.037c0.655 0 1.185 0.531 1.185 1.185s-0.531 1.185-1.185 1.185h-13.037c-0.655 0-1.185-0.531-1.185-1.185s0.531-1.185 1.185-1.185z"></path>
<path d="M17.778 29.63h13.037c0.655 0 1.185 0.531 1.185 1.185s-0.531 1.185-1.185 1.185h-13.037c-0.655 0-1.185-0.531-1.185-1.185s0.531-1.185 1.185-1.185z"></path>
<path d="M1.185 17.778h13.037c0.655 0 1.185 0.531 1.185 1.185s-0.531 1.185-1.185 1.185h-13.037c-0.655 0-1.185-0.531-1.185-1.185s0.531-1.185 1.185-1.185z"></path>
<path d="M17.778 17.778h13.037c0.655 0 1.185 0.531 1.185 1.185s-0.531 1.185-1.185 1.185h-13.037c-0.655 0-1.185-0.531-1.185-1.185s0.531-1.185 1.185-1.185z"></path>
<path d="M1.185 5.926h29.63c0.655 0 1.185 0.531 1.185 1.185s-0.531 1.185-1.185 1.185h-29.63c-0.655 0-1.185-0.531-1.185-1.185s0.531-1.185 1.185-1.185z"></path>
<path d="M1.185 11.852h13.037c0.655 0 1.185 0.531 1.185 1.185s-0.531 1.185-1.185 1.185h-13.037c-0.655 0-1.185-0.531-1.185-1.185s0.531-1.185 1.185-1.185z"></path>
<path d="M17.778 11.852h13.037c0.655 0 1.185 0.531 1.185 1.185s-0.531 1.185-1.185 1.185h-13.037c-0.655 0-1.185-0.531-1.185-1.185s0.531-1.185 1.185-1.185z"></path>
<path d="M1.185 0h13.037c0.655 0 1.185 0.531 1.185 1.185s-0.531 1.185-1.185 1.185h-13.037c-0.655 0-1.185-0.531-1.185-1.185s0.531-1.185 1.185-1.185z"></path>
<path d="M17.778 0h13.037c0.655 0 1.185 0.531 1.185 1.185s-0.531 1.185-1.185 1.185h-13.037c-0.655 0-1.185-0.531-1.185-1.185s0.531-1.185 1.185-1.185z"></path>
</symbol>
<symbol id="icon-30" viewBox="0 0 32 32">
<path d="M1.185 29.63h29.63c0.655 0 1.185 0.531 1.185 1.185s-0.531 1.185-1.185 1.185h-29.63c-0.655 0-1.185-0.531-1.185-1.185s0.531-1.185 1.185-1.185z"></path>
<path d="M1.185 17.778h29.63c0.655 0 1.185 0.531 1.185 1.185s-0.531 1.185-1.185 1.185h-29.63c-0.655 0-1.185-0.531-1.185-1.185s0.531-1.185 1.185-1.185z"></path>
<path d="M1.185 23.704h13.037c0.655 0 1.185 0.531 1.185 1.185s-0.531 1.185-1.185 1.185h-13.037c-0.655 0-1.185-0.531-1.185-1.185s0.531-1.185 1.185-1.185z"></path>
<path d="M17.778 23.704h13.037c0.655 0 1.185 0.531 1.185 1.185s-0.531 1.185-1.185 1.185h-13.037c-0.655 0-1.185-0.531-1.185-1.185s0.531-1.185 1.185-1.185z"></path>
<path d="M1.185 11.852h29.63c0.655 0 1.185 0.531 1.185 1.185s-0.531 1.185-1.185 1.185h-29.63c-0.655 0-1.185-0.531-1.185-1.185s0.531-1.185 1.185-1.185z"></path>
<path d="M1.185 0h29.63c0.655 0 1.185 0.531 1.185 1.185s-0.531 1.185-1.185 1.185h-29.63c-0.655 0-1.185-0.531-1.185-1.185s0.531-1.185 1.185-1.185z"></path>
<path d="M1.185 5.926h13.037c0.655 0 1.185 0.531 1.185 1.185s-0.531 1.185-1.185 1.185h-13.037c-0.655 0-1.185-0.531-1.185-1.185s0.531-1.185 1.185-1.185z"></path>
<path d="M17.778 5.926h13.037c0.655 0 1.185 0.531 1.185 1.185s-0.531 1.185-1.185 1.185h-13.037c-0.655 0-1.185-0.531-1.185-1.185s0.531-1.185 1.185-1.185z"></path>
</symbol>
<symbol id="icon-31" viewBox="0 0 32 32">
<path d="M1.185 17.778h29.63c0.655 0 1.185 0.531 1.185 1.185s-0.531 1.185-1.185 1.185h-29.63c-0.655 0-1.185-0.531-1.185-1.185s0.531-1.185 1.185-1.185z"></path>
<path d="M1.185 23.704h13.037c0.655 0 1.185 0.531 1.185 1.185s-0.531 1.185-1.185 1.185h-13.037c-0.655 0-1.185-0.531-1.185-1.185s0.531-1.185 1.185-1.185z"></path>
<path d="M17.778 23.704h13.037c0.655 0 1.185 0.531 1.185 1.185s-0.531 1.185-1.185 1.185h-13.037c-0.655 0-1.185-0.531-1.185-1.185s0.531-1.185 1.185-1.185z"></path>
<path d="M1.185 29.63h13.037c0.655 0 1.185 0.531 1.185 1.185s-0.531 1.185-1.185 1.185h-13.037c-0.655 0-1.185-0.531-1.185-1.185s0.531-1.185 1.185-1.185z"></path>
<path d="M17.778 29.63h13.037c0.655 0 1.185 0.531 1.185 1.185s-0.531 1.185-1.185 1.185h-13.037c-0.655 0-1.185-0.531-1.185-1.185s0.531-1.185 1.185-1.185z"></path>
<path d="M1.185 5.926h29.63c0.655 0 1.185 0.531 1.185 1.185s-0.531 1.185-1.185 1.185h-29.63c-0.655 0-1.185-0.531-1.185-1.185s0.531-1.185 1.185-1.185z"></path>
<path d="M1.185 11.852h29.63c0.655 0 1.185 0.531 1.185 1.185s-0.531 1.185-1.185 1.185h-29.63c-0.655 0-1.185-0.531-1.185-1.185s0.531-1.185 1.185-1.185z"></path>
<path d="M1.185 0h13.037c0.655 0 1.185 0.531 1.185 1.185s-0.531 1.185-1.185 1.185h-13.037c-0.655 0-1.185-0.531-1.185-1.185s0.531-1.185 1.185-1.185z"></path>
<path d="M17.778 0h13.037c0.655 0 1.185 0.531 1.185 1.185s-0.531 1.185-1.185 1.185h-13.037c-0.655 0-1.185-0.531-1.185-1.185s0.531-1.185 1.185-1.185z"></path>
</symbol>
<symbol id="icon-32" viewBox="0 0 32 32">
<path d="M1.185 11.852h29.63c0.655 0 1.185 0.531 1.185 1.185s-0.531 1.185-1.185 1.185h-29.63c-0.655 0-1.185-0.531-1.185-1.185s0.531-1.185 1.185-1.185z"></path>
<path d="M1.185 0h13.037c0.655 0 1.185 0.531 1.185 1.185s-0.531 1.185-1.185 1.185h-13.037c-0.655 0-1.185-0.531-1.185-1.185s0.531-1.185 1.185-1.185z"></path>
<path d="M17.778 0h13.037c0.655 0 1.185 0.531 1.185 1.185s-0.531 1.185-1.185 1.185h-13.037c-0.655 0-1.185-0.531-1.185-1.185s0.531-1.185 1.185-1.185z"></path>
<path d="M1.185 5.926h13.037c0.655 0 1.185 0.531 1.185 1.185s-0.531 1.185-1.185 1.185h-13.037c-0.655 0-1.185-0.531-1.185-1.185s0.531-1.185 1.185-1.185z"></path>
<path d="M17.778 5.926h13.037c0.655 0 1.185 0.531 1.185 1.185s-0.531 1.185-1.185 1.185h-13.037c-0.655 0-1.185-0.531-1.185-1.185s0.531-1.185 1.185-1.185z"></path>
<path d="M1.185 23.704h29.63c0.655 0 1.185 0.531 1.185 1.185s-0.531 1.185-1.185 1.185h-29.63c-0.655 0-1.185-0.531-1.185-1.185s0.531-1.185 1.185-1.185z"></path>
<path d="M1.185 17.778h29.63c0.655 0 1.185 0.531 1.185 1.185s-0.531 1.185-1.185 1.185h-29.63c-0.655 0-1.185-0.531-1.185-1.185s0.531-1.185 1.185-1.185z"></path>
<path d="M1.185 29.63h13.037c0.655 0 1.185 0.531 1.185 1.185s-0.531 1.185-1.185 1.185h-13.037c-0.655 0-1.185-0.531-1.185-1.185s0.531-1.185 1.185-1.185z"></path>
<path d="M17.778 29.63h13.037c0.655 0 1.185 0.531 1.185 1.185s-0.531 1.185-1.185 1.185h-13.037c-0.655 0-1.185-0.531-1.185-1.185s0.531-1.185 1.185-1.185z"></path>
</symbol>
<symbol id="icon-33" viewBox="0 0 32 32">
<path d="M1.185 17.778h29.63c0.655 0 1.185 0.531 1.185 1.185s-0.531 1.185-1.185 1.185h-29.63c-0.655 0-1.185-0.531-1.185-1.185s0.531-1.185 1.185-1.185z"></path>
<path d="M1.185 23.704h13.037c0.655 0 1.185 0.531 1.185 1.185s-0.531 1.185-1.185 1.185h-13.037c-0.655 0-1.185-0.531-1.185-1.185s0.531-1.185 1.185-1.185z"></path>
<path d="M17.778 23.704h13.037c0.655 0 1.185 0.531 1.185 1.185s-0.531 1.185-1.185 1.185h-13.037c-0.655 0-1.185-0.531-1.185-1.185s0.531-1.185 1.185-1.185z"></path>
<path d="M1.185 29.63h13.037c0.655 0 1.185 0.531 1.185 1.185s-0.531 1.185-1.185 1.185h-13.037c-0.655 0-1.185-0.531-1.185-1.185s0.531-1.185 1.185-1.185z"></path>
<path d="M17.778 29.63h13.037c0.655 0 1.185 0.531 1.185 1.185s-0.531 1.185-1.185 1.185h-13.037c-0.655 0-1.185-0.531-1.185-1.185s0.531-1.185 1.185-1.185z"></path>
<path d="M1.185 0h29.63c0.655 0 1.185 0.531 1.185 1.185s-0.531 1.185-1.185 1.185h-29.63c-0.655 0-1.185-0.531-1.185-1.185s0.531-1.185 1.185-1.185z"></path>
<path d="M1.185 5.926h29.63c0.655 0 1.185 0.531 1.185 1.185s-0.531 1.185-1.185 1.185h-29.63c-0.655 0-1.185-0.531-1.185-1.185s0.531-1.185 1.185-1.185z"></path>
<path d="M1.185 11.852h29.63c0.655 0 1.185 0.531 1.185 1.185s-0.531 1.185-1.185 1.185h-29.63c-0.655 0-1.185-0.531-1.185-1.185s0.531-1.185 1.185-1.185z"></path>
</symbol>
<symbol id="icon-34" viewBox="0 0 32 32">
<path d="M1.185 11.852h29.63c0.655 0 1.185 0.531 1.185 1.185s-0.531 1.185-1.185 1.185h-29.63c-0.655 0-1.185-0.531-1.185-1.185s0.531-1.185 1.185-1.185z"></path>
<path d="M1.185 0h13.037c0.655 0 1.185 0.531 1.185 1.185s-0.531 1.185-1.185 1.185h-13.037c-0.655 0-1.185-0.531-1.185-1.185s0.531-1.185 1.185-1.185z"></path>
<path d="M17.778 0h13.037c0.655 0 1.185 0.531 1.185 1.185s-0.531 1.185-1.185 1.185h-13.037c-0.655 0-1.185-0.531-1.185-1.185s0.531-1.185 1.185-1.185z"></path>
<path d="M1.185 5.926h13.037c0.655 0 1.185 0.531 1.185 1.185s-0.531 1.185-1.185 1.185h-13.037c-0.655 0-1.185-0.531-1.185-1.185s0.531-1.185 1.185-1.185z"></path>
<path d="M17.778 5.926h13.037c0.655 0 1.185 0.531 1.185 1.185s-0.531 1.185-1.185 1.185h-13.037c-0.655 0-1.185-0.531-1.185-1.185s0.531-1.185 1.185-1.185z"></path>
<path d="M1.185 17.778h29.63c0.655 0 1.185 0.531 1.185 1.185s-0.531 1.185-1.185 1.185h-29.63c-0.655 0-1.185-0.531-1.185-1.185s0.531-1.185 1.185-1.185z"></path>
<path d="M1.185 23.704h29.63c0.655 0 1.185 0.531 1.185 1.185s-0.531 1.185-1.185 1.185h-29.63c-0.655 0-1.185-0.531-1.185-1.185s0.531-1.185 1.185-1.185z"></path>
<path d="M1.185 29.63h29.63c0.655 0 1.185 0.531 1.185 1.185s-0.531 1.185-1.185 1.185h-29.63c-0.655 0-1.185-0.531-1.185-1.185s0.531-1.185 1.185-1.185z"></path>
</symbol>
<symbol id="icon-35" viewBox="0 0 32 32">
<path d="M1.185 11.852h29.63c0.655 0 1.185 0.531 1.185 1.185s-0.531 1.185-1.185 1.185h-29.63c-0.655 0-1.185-0.531-1.185-1.185s0.531-1.185 1.185-1.185z"></path>
<path d="M1.185 0h29.63c0.655 0 1.185 0.531 1.185 1.185s-0.531 1.185-1.185 1.185h-29.63c-0.655 0-1.185-0.531-1.185-1.185s0.531-1.185 1.185-1.185z"></path>
<path d="M1.185 5.926h13.037c0.655 0 1.185 0.531 1.185 1.185s-0.531 1.185-1.185 1.185h-13.037c-0.655 0-1.185-0.531-1.185-1.185s0.531-1.185 1.185-1.185z"></path>
<path d="M17.778 5.926h13.037c0.655 0 1.185 0.531 1.185 1.185s-0.531 1.185-1.185 1.185h-13.037c-0.655 0-1.185-0.531-1.185-1.185s0.531-1.185 1.185-1.185z"></path>
<path d="M1.185 17.778h13.037c0.655 0 1.185 0.531 1.185 1.185s-0.531 1.185-1.185 1.185h-13.037c-0.655 0-1.185-0.531-1.185-1.185s0.531-1.185 1.185-1.185z"></path>
<path d="M17.778 17.778h13.037c0.655 0 1.185 0.531 1.185 1.185s-0.531 1.185-1.185 1.185h-13.037c-0.655 0-1.185-0.531-1.185-1.185s0.531-1.185 1.185-1.185z"></path>
<path d="M1.185 29.63h13.037c0.655 0 1.185 0.531 1.185 1.185s-0.531 1.185-1.185 1.185h-13.037c-0.655 0-1.185-0.531-1.185-1.185s0.531-1.185 1.185-1.185z"></path>
<path d="M17.778 29.63h13.037c0.655 0 1.185 0.531 1.185 1.185s-0.531 1.185-1.185 1.185h-13.037c-0.655 0-1.185-0.531-1.185-1.185s0.531-1.185 1.185-1.185z"></path>
<path d="M1.185 23.704h13.037c0.655 0 1.185 0.531 1.185 1.185s-0.531 1.185-1.185 1.185h-13.037c-0.655 0-1.185-0.531-1.185-1.185s0.531-1.185 1.185-1.185z"></path>
<path d="M17.778 23.704h13.037c0.655 0 1.185 0.531 1.185 1.185s-0.531 1.185-1.185 1.185h-13.037c-0.655 0-1.185-0.531-1.185-1.185s0.531-1.185 1.185-1.185z"></path>
</symbol>
<symbol id="icon-36" viewBox="0 0 32 32">
<path d="M1.185 29.63h29.63c0.655 0 1.185 0.531 1.185 1.185s-0.531 1.185-1.185 1.185h-29.63c-0.655 0-1.185-0.531-1.185-1.185s0.531-1.185 1.185-1.185z"></path>
<path d="M1.185 17.778h29.63c0.655 0 1.185 0.531 1.185 1.185s-0.531 1.185-1.185 1.185h-29.63c-0.655 0-1.185-0.531-1.185-1.185s0.531-1.185 1.185-1.185z"></path>
<path d="M1.185 23.704h13.037c0.655 0 1.185 0.531 1.185 1.185s-0.531 1.185-1.185 1.185h-13.037c-0.655 0-1.185-0.531-1.185-1.185s0.531-1.185 1.185-1.185z"></path>
<path d="M17.778 23.704h13.037c0.655 0 1.185 0.531 1.185 1.185s-0.531 1.185-1.185 1.185h-13.037c-0.655 0-1.185-0.531-1.185-1.185s0.531-1.185 1.185-1.185z"></path>
<path d="M1.185 0h13.037c0.655 0 1.185 0.531 1.185 1.185s-0.531 1.185-1.185 1.185h-13.037c-0.655 0-1.185-0.531-1.185-1.185s0.531-1.185 1.185-1.185z"></path>
<path d="M17.778 0h13.037c0.655 0 1.185 0.531 1.185 1.185s-0.531 1.185-1.185 1.185h-13.037c-0.655 0-1.185-0.531-1.185-1.185s0.531-1.185 1.185-1.185z"></path>
<path d="M1.185 11.852h13.037c0.655 0 1.185 0.531 1.185 1.185s-0.531 1.185-1.185 1.185h-13.037c-0.655 0-1.185-0.531-1.185-1.185s0.531-1.185 1.185-1.185z"></path>
<path d="M17.778 11.852h13.037c0.655 0 1.185 0.531 1.185 1.185s-0.531 1.185-1.185 1.185h-13.037c-0.655 0-1.185-0.531-1.185-1.185s0.531-1.185 1.185-1.185z"></path>
<path d="M1.185 5.926h13.037c0.655 0 1.185 0.531 1.185 1.185s-0.531 1.185-1.185 1.185h-13.037c-0.655 0-1.185-0.531-1.185-1.185s0.531-1.185 1.185-1.185z"></path>
<path d="M17.778 5.926h13.037c0.655 0 1.185 0.531 1.185 1.185s-0.531 1.185-1.185 1.185h-13.037c-0.655 0-1.185-0.531-1.185-1.185s0.531-1.185 1.185-1.185z"></path>
</symbol>
<symbol id="icon-37" viewBox="0 0 32 32">
<path d="M1.185 5.926h29.63c0.655 0 1.185 0.531 1.185 1.185s-0.531 1.185-1.185 1.185h-29.63c-0.655 0-1.185-0.531-1.185-1.185s0.531-1.185 1.185-1.185z"></path>
<path d="M1.185 0h29.63c0.655 0 1.185 0.531 1.185 1.185s-0.531 1.185-1.185 1.185h-29.63c-0.655 0-1.185-0.531-1.185-1.185s0.531-1.185 1.185-1.185z"></path>
<path d="M1.185 11.852h13.037c0.655 0 1.185 0.531 1.185 1.185s-0.531 1.185-1.185 1.185h-13.037c-0.655 0-1.185-0.531-1.185-1.185s0.531-1.185 1.185-1.185z"></path>
<path d="M17.778 11.852h13.037c0.655 0 1.185 0.531 1.185 1.185s-0.531 1.185-1.185 1.185h-13.037c-0.655 0-1.185-0.531-1.185-1.185s0.531-1.185 1.185-1.185z"></path>
<path d="M1.185 29.63h29.63c0.655 0 1.185 0.531 1.185 1.185s-0.531 1.185-1.185 1.185h-29.63c-0.655 0-1.185-0.531-1.185-1.185s0.531-1.185 1.185-1.185z"></path>
<path d="M1.185 17.778h29.63c0.655 0 1.185 0.531 1.185 1.185s-0.531 1.185-1.185 1.185h-29.63c-0.655 0-1.185-0.531-1.185-1.185s0.531-1.185 1.185-1.185z"></path>
<path d="M1.185 23.704h13.037c0.655 0 1.185 0.531 1.185 1.185s-0.531 1.185-1.185 1.185h-13.037c-0.655 0-1.185-0.531-1.185-1.185s0.531-1.185 1.185-1.185z"></path>
<path d="M17.778 23.704h13.037c0.655 0 1.185 0.531 1.185 1.185s-0.531 1.185-1.185 1.185h-13.037c-0.655 0-1.185-0.531-1.185-1.185s0.531-1.185 1.185-1.185z"></path>
</symbol>
<symbol id="icon-38" viewBox="0 0 32 32">
<path d="M1.185 11.852h29.63c0.655 0 1.185 0.531 1.185 1.185s-0.531 1.185-1.185 1.185h-29.63c-0.655 0-1.185-0.531-1.185-1.185s0.531-1.185 1.185-1.185z"></path>
<path d="M1.185 0h29.63c0.655 0 1.185 0.531 1.185 1.185s-0.531 1.185-1.185 1.185h-29.63c-0.655 0-1.185-0.531-1.185-1.185s0.531-1.185 1.185-1.185z"></path>
<path d="M1.185 5.926h13.037c0.655 0 1.185 0.531 1.185 1.185s-0.531 1.185-1.185 1.185h-13.037c-0.655 0-1.185-0.531-1.185-1.185s0.531-1.185 1.185-1.185z"></path>
<path d="M17.778 5.926h13.037c0.655 0 1.185 0.531 1.185 1.185s-0.531 1.185-1.185 1.185h-13.037c-0.655 0-1.185-0.531-1.185-1.185s0.531-1.185 1.185-1.185z"></path>
<path d="M1.185 23.704h29.63c0.655 0 1.185 0.531 1.185 1.185s-0.531 1.185-1.185 1.185h-29.63c-0.655 0-1.185-0.531-1.185-1.185s0.531-1.185 1.185-1.185z"></path>
<path d="M1.185 29.63h29.63c0.655 0 1.185 0.531 1.185 1.185s-0.531 1.185-1.185 1.185h-29.63c-0.655 0-1.185-0.531-1.185-1.185s0.531-1.185 1.185-1.185z"></path>
<path d="M1.185 17.778h13.037c0.655 0 1.185 0.531 1.185 1.185s-0.531 1.185-1.185 1.185h-13.037c-0.655 0-1.185-0.531-1.185-1.185s0.531-1.185 1.185-1.185z"></path>
<path d="M17.778 17.778h13.037c0.655 0 1.185 0.531 1.185 1.185s-0.531 1.185-1.185 1.185h-13.037c-0.655 0-1.185-0.531-1.185-1.185s0.531-1.185 1.185-1.185z"></path>
</symbol>
<symbol id="icon-39" viewBox="0 0 32 32">
<path d="M1.185 17.778h29.63c0.655 0 1.185 0.531 1.185 1.185s-0.531 1.185-1.185 1.185h-29.63c-0.655 0-1.185-0.531-1.185-1.185s0.531-1.185 1.185-1.185z"></path>
<path d="M1.185 23.704h13.037c0.655 0 1.185 0.531 1.185 1.185s-0.531 1.185-1.185 1.185h-13.037c-0.655 0-1.185-0.531-1.185-1.185s0.531-1.185 1.185-1.185z"></path>
<path d="M17.778 23.704h13.037c0.655 0 1.185 0.531 1.185 1.185s-0.531 1.185-1.185 1.185h-13.037c-0.655 0-1.185-0.531-1.185-1.185s0.531-1.185 1.185-1.185z"></path>
<path d="M1.185 29.63h13.037c0.655 0 1.185 0.531 1.185 1.185s-0.531 1.185-1.185 1.185h-13.037c-0.655 0-1.185-0.531-1.185-1.185s0.531-1.185 1.185-1.185z"></path>
<path d="M17.778 29.63h13.037c0.655 0 1.185 0.531 1.185 1.185s-0.531 1.185-1.185 1.185h-13.037c-0.655 0-1.185-0.531-1.185-1.185s0.531-1.185 1.185-1.185z"></path>
<path d="M1.185 5.926h29.63c0.655 0 1.185 0.531 1.185 1.185s-0.531 1.185-1.185 1.185h-29.63c-0.655 0-1.185-0.531-1.185-1.185s0.531-1.185 1.185-1.185z"></path>
<path d="M1.185 0h13.037c0.655 0 1.185 0.531 1.185 1.185s-0.531 1.185-1.185 1.185h-13.037c-0.655 0-1.185-0.531-1.185-1.185s0.531-1.185 1.185-1.185z"></path>
<path d="M17.778 0h13.037c0.655 0 1.185 0.531 1.185 1.185s-0.531 1.185-1.185 1.185h-13.037c-0.655 0-1.185-0.531-1.185-1.185s0.531-1.185 1.185-1.185z"></path>
<path d="M1.185 11.852h13.037c0.655 0 1.185 0.531 1.185 1.185s-0.531 1.185-1.185 1.185h-13.037c-0.655 0-1.185-0.531-1.185-1.185s0.531-1.185 1.185-1.185z"></path>
<path d="M17.778 11.852h13.037c0.655 0 1.185 0.531 1.185 1.185s-0.531 1.185-1.185 1.185h-13.037c-0.655 0-1.185-0.531-1.185-1.185s0.531-1.185 1.185-1.185z"></path>
</symbol>
<symbol id="icon-40" viewBox="0 0 32 32">
<path d="M1.185 11.852h29.63c0.655 0 1.185 0.531 1.185 1.185s-0.531 1.185-1.185 1.185h-29.63c-0.655 0-1.185-0.531-1.185-1.185s0.531-1.185 1.185-1.185z"></path>
<path d="M1.185 0h13.037c0.655 0 1.185 0.531 1.185 1.185s-0.531 1.185-1.185 1.185h-13.037c-0.655 0-1.185-0.531-1.185-1.185s0.531-1.185 1.185-1.185z"></path>
<path d="M17.778 0h13.037c0.655 0 1.185 0.531 1.185 1.185s-0.531 1.185-1.185 1.185h-13.037c-0.655 0-1.185-0.531-1.185-1.185s0.531-1.185 1.185-1.185z"></path>
<path d="M1.185 5.926h13.037c0.655 0 1.185 0.531 1.185 1.185s-0.531 1.185-1.185 1.185h-13.037c-0.655 0-1.185-0.531-1.185-1.185s0.531-1.185 1.185-1.185z"></path>
<path d="M17.778 5.926h13.037c0.655 0 1.185 0.531 1.185 1.185s-0.531 1.185-1.185 1.185h-13.037c-0.655 0-1.185-0.531-1.185-1.185s0.531-1.185 1.185-1.185z"></path>
<path d="M1.185 23.704h29.63c0.655 0 1.185 0.531 1.185 1.185s-0.531 1.185-1.185 1.185h-29.63c-0.655 0-1.185-0.531-1.185-1.185s0.531-1.185 1.185-1.185z"></path>
<path d="M1.185 17.778h13.037c0.655 0 1.185 0.531 1.185 1.185s-0.531 1.185-1.185 1.185h-13.037c-0.655 0-1.185-0.531-1.185-1.185s0.531-1.185 1.185-1.185z"></path>
<path d="M17.778 17.778h13.037c0.655 0 1.185 0.531 1.185 1.185s-0.531 1.185-1.185 1.185h-13.037c-0.655 0-1.185-0.531-1.185-1.185s0.531-1.185 1.185-1.185z"></path>
<path d="M1.185 29.63h13.037c0.655 0 1.185 0.531 1.185 1.185s-0.531 1.185-1.185 1.185h-13.037c-0.655 0-1.185-0.531-1.185-1.185s0.531-1.185 1.185-1.185z"></path>
<path d="M17.778 29.63h13.037c0.655 0 1.185 0.531 1.185 1.185s-0.531 1.185-1.185 1.185h-13.037c-0.655 0-1.185-0.531-1.185-1.185s0.531-1.185 1.185-1.185z"></path>
</symbol>
<symbol id="icon-41" viewBox="0 0 32 32">
<path d="M1.185 0h29.63c0.655 0 1.185 0.531 1.185 1.185s-0.531 1.185-1.185 1.185h-29.63c-0.655 0-1.185-0.531-1.185-1.185s0.531-1.185 1.185-1.185z"></path>
<path d="M1.185 5.926h13.037c0.655 0 1.185 0.531 1.185 1.185s-0.531 1.185-1.185 1.185h-13.037c-0.655 0-1.185-0.531-1.185-1.185s0.531-1.185 1.185-1.185z"></path>
<path d="M17.778 5.926h13.037c0.655 0 1.185 0.531 1.185 1.185s-0.531 1.185-1.185 1.185h-13.037c-0.655 0-1.185-0.531-1.185-1.185s0.531-1.185 1.185-1.185z"></path>
<path d="M1.185 11.852h13.037c0.655 0 1.185 0.531 1.185 1.185s-0.531 1.185-1.185 1.185h-13.037c-0.655 0-1.185-0.531-1.185-1.185s0.531-1.185 1.185-1.185z"></path>
<path d="M17.778 11.852h13.037c0.655 0 1.185 0.531 1.185 1.185s-0.531 1.185-1.185 1.185h-13.037c-0.655 0-1.185-0.531-1.185-1.185s0.531-1.185 1.185-1.185z"></path>
<path d="M1.185 23.704h29.63c0.655 0 1.185 0.531 1.185 1.185s-0.531 1.185-1.185 1.185h-29.63c-0.655 0-1.185-0.531-1.185-1.185s0.531-1.185 1.185-1.185z"></path>
<path d="M1.185 29.63h29.63c0.655 0 1.185 0.531 1.185 1.185s-0.531 1.185-1.185 1.185h-29.63c-0.655 0-1.185-0.531-1.185-1.185s0.531-1.185 1.185-1.185z"></path>
<path d="M1.185 17.778h13.037c0.655 0 1.185 0.531 1.185 1.185s-0.531 1.185-1.185 1.185h-13.037c-0.655 0-1.185-0.531-1.185-1.185s0.531-1.185 1.185-1.185z"></path>
<path d="M17.778 17.778h13.037c0.655 0 1.185 0.531 1.185 1.185s-0.531 1.185-1.185 1.185h-13.037c-0.655 0-1.185-0.531-1.185-1.185s0.531-1.185 1.185-1.185z"></path>
</symbol>
<symbol id="icon-42" viewBox="0 0 32 32">
<path d="M1.185 29.63h29.63c0.655 0 1.185 0.531 1.185 1.185s-0.531 1.185-1.185 1.185h-29.63c-0.655 0-1.185-0.531-1.185-1.185s0.531-1.185 1.185-1.185z"></path>
<path d="M1.185 17.778h13.037c0.655 0 1.185 0.531 1.185 1.185s-0.531 1.185-1.185 1.185h-13.037c-0.655 0-1.185-0.531-1.185-1.185s0.531-1.185 1.185-1.185z"></path>
<path d="M17.778 17.778h13.037c0.655 0 1.185 0.531 1.185 1.185s-0.531 1.185-1.185 1.185h-13.037c-0.655 0-1.185-0.531-1.185-1.185s0.531-1.185 1.185-1.185z"></path>
<path d="M1.185 23.704h13.037c0.655 0 1.185 0.531 1.185 1.185s-0.531 1.185-1.185 1.185h-13.037c-0.655 0-1.185-0.531-1.185-1.185s0.531-1.185 1.185-1.185z"></path>
<path d="M17.778 23.704h13.037c0.655 0 1.185 0.531 1.185 1.185s-0.531 1.185-1.185 1.185h-13.037c-0.655 0-1.185-0.531-1.185-1.185s0.531-1.185 1.185-1.185z"></path>
<path d="M1.185 5.926h29.63c0.655 0 1.185 0.531 1.185 1.185s-0.531 1.185-1.185 1.185h-29.63c-0.655 0-1.185-0.531-1.185-1.185s0.531-1.185 1.185-1.185z"></path>
<path d="M1.185 0h29.63c0.655 0 1.185 0.531 1.185 1.185s-0.531 1.185-1.185 1.185h-29.63c-0.655 0-1.185-0.531-1.185-1.185s0.531-1.185 1.185-1.185z"></path>
<path d="M1.185 11.852h13.037c0.655 0 1.185 0.531 1.185 1.185s-0.531 1.185-1.185 1.185h-13.037c-0.655 0-1.185-0.531-1.185-1.185s0.531-1.185 1.185-1.185z"></path>
<path d="M17.778 11.852h13.037c0.655 0 1.185 0.531 1.185 1.185s-0.531 1.185-1.185 1.185h-13.037c-0.655 0-1.185-0.531-1.185-1.185s0.531-1.185 1.185-1.185z"></path>
</symbol>
<symbol id="icon-43" viewBox="0 0 32 32">
<path d="M1.185 17.778h29.63c0.655 0 1.185 0.531 1.185 1.185s-0.531 1.185-1.185 1.185h-29.63c-0.655 0-1.185-0.531-1.185-1.185s0.531-1.185 1.185-1.185z"></path>
<path d="M1.185 23.704h29.63c0.655 0 1.185 0.531 1.185 1.185s-0.531 1.185-1.185 1.185h-29.63c-0.655 0-1.185-0.531-1.185-1.185s0.531-1.185 1.185-1.185z"></path>
<path d="M1.185 29.63h29.63c0.655 0 1.185 0.531 1.185 1.185s-0.531 1.185-1.185 1.185h-29.63c-0.655 0-1.185-0.531-1.185-1.185s0.531-1.185 1.185-1.185z"></path>
<path d="M1.185 5.926h29.63c0.655 0 1.185 0.531 1.185 1.185s-0.531 1.185-1.185 1.185h-29.63c-0.655 0-1.185-0.531-1.185-1.185s0.531-1.185 1.185-1.185z"></path>
<path d="M1.185 11.852h29.63c0.655 0 1.185 0.531 1.185 1.185s-0.531 1.185-1.185 1.185h-29.63c-0.655 0-1.185-0.531-1.185-1.185s0.531-1.185 1.185-1.185z"></path>
<path d="M1.185 0h13.037c0.655 0 1.185 0.531 1.185 1.185s-0.531 1.185-1.185 1.185h-13.037c-0.655 0-1.185-0.531-1.185-1.185s0.531-1.185 1.185-1.185z"></path>
<path d="M17.778 0h13.037c0.655 0 1.185 0.531 1.185 1.185s-0.531 1.185-1.185 1.185h-13.037c-0.655 0-1.185-0.531-1.185-1.185s0.531-1.185 1.185-1.185z"></path>
</symbol>
<symbol id="icon-44" viewBox="0 0 32 32">
<path d="M1.185 23.704h29.63c0.655 0 1.185 0.531 1.185 1.185s-0.531 1.185-1.185 1.185h-29.63c-0.655 0-1.185-0.531-1.185-1.185s0.531-1.185 1.185-1.185z"></path>
<path d="M1.185 17.778h29.63c0.655 0 1.185 0.531 1.185 1.185s-0.531 1.185-1.185 1.185h-29.63c-0.655 0-1.185-0.531-1.185-1.185s0.531-1.185 1.185-1.185z"></path>
<path d="M1.185 29.63h13.037c0.655 0 1.185 0.531 1.185 1.185s-0.531 1.185-1.185 1.185h-13.037c-0.655 0-1.185-0.531-1.185-1.185s0.531-1.185 1.185-1.185z"></path>
<path d="M17.778 29.63h13.037c0.655 0 1.185 0.531 1.185 1.185s-0.531 1.185-1.185 1.185h-13.037c-0.655 0-1.185-0.531-1.185-1.185s0.531-1.185 1.185-1.185z"></path>
<path d="M1.185 0h29.63c0.655 0 1.185 0.531 1.185 1.185s-0.531 1.185-1.185 1.185h-29.63c-0.655 0-1.185-0.531-1.185-1.185s0.531-1.185 1.185-1.185z"></path>
<path d="M1.185 5.926h29.63c0.655 0 1.185 0.531 1.185 1.185s-0.531 1.185-1.185 1.185h-29.63c-0.655 0-1.185-0.531-1.185-1.185s0.531-1.185 1.185-1.185z"></path>
<path d="M1.185 11.852h29.63c0.655 0 1.185 0.531 1.185 1.185s-0.531 1.185-1.185 1.185h-29.63c-0.655 0-1.185-0.531-1.185-1.185s0.531-1.185 1.185-1.185z"></path>
</symbol>
<symbol id="icon-45" viewBox="0 0 32 32">
<path d="M1.185 5.926h29.63c0.655 0 1.185 0.531 1.185 1.185s-0.531 1.185-1.185 1.185h-29.63c-0.655 0-1.185-0.531-1.185-1.185s0.531-1.185 1.185-1.185z"></path>
<path d="M1.185 11.852h29.63c0.655 0 1.185 0.531 1.185 1.185s-0.531 1.185-1.185 1.185h-29.63c-0.655 0-1.185-0.531-1.185-1.185s0.531-1.185 1.185-1.185z"></path>
<path d="M1.185 0h13.037c0.655 0 1.185 0.531 1.185 1.185s-0.531 1.185-1.185 1.185h-13.037c-0.655 0-1.185-0.531-1.185-1.185s0.531-1.185 1.185-1.185z"></path>
<path d="M17.778 0h13.037c0.655 0 1.185 0.531 1.185 1.185s-0.531 1.185-1.185 1.185h-13.037c-0.655 0-1.185-0.531-1.185-1.185s0.531-1.185 1.185-1.185z"></path>
<path d="M1.185 17.778h13.037c0.655 0 1.185 0.531 1.185 1.185s-0.531 1.185-1.185 1.185h-13.037c-0.655 0-1.185-0.531-1.185-1.185s0.531-1.185 1.185-1.185z"></path>
<path d="M17.778 17.778h13.037c0.655 0 1.185 0.531 1.185 1.185s-0.531 1.185-1.185 1.185h-13.037c-0.655 0-1.185-0.531-1.185-1.185s0.531-1.185 1.185-1.185z"></path>
<path d="M1.185 29.63h13.037c0.655 0 1.185 0.531 1.185 1.185s-0.531 1.185-1.185 1.185h-13.037c-0.655 0-1.185-0.531-1.185-1.185s0.531-1.185 1.185-1.185z"></path>
<path d="M17.778 29.63h13.037c0.655 0 1.185 0.531 1.185 1.185s-0.531 1.185-1.185 1.185h-13.037c-0.655 0-1.185-0.531-1.185-1.185s0.531-1.185 1.185-1.185z"></path>
<path d="M1.185 23.704h13.037c0.655 0 1.185 0.531 1.185 1.185s-0.531 1.185-1.185 1.185h-13.037c-0.655 0-1.185-0.531-1.185-1.185s0.531-1.185 1.185-1.185z"></path>
<path d="M17.778 23.704h13.037c0.655 0 1.185 0.531 1.185 1.185s-0.531 1.185-1.185 1.185h-13.037c-0.655 0-1.185-0.531-1.185-1.185s0.531-1.185 1.185-1.185z"></path>
</symbol>
<symbol id="icon-46" viewBox="0 0 32 32">
<path d="M1.185 23.704h29.63c0.655 0 1.185 0.531 1.185 1.185s-0.531 1.185-1.185 1.185h-29.63c-0.655 0-1.185-0.531-1.185-1.185s0.531-1.185 1.185-1.185z"></path>
<path d="M1.185 17.778h29.63c0.655 0 1.185 0.531 1.185 1.185s-0.531 1.185-1.185 1.185h-29.63c-0.655 0-1.185-0.531-1.185-1.185s0.531-1.185 1.185-1.185z"></path>
<path d="M1.185 29.63h13.037c0.655 0 1.185 0.531 1.185 1.185s-0.531 1.185-1.185 1.185h-13.037c-0.655 0-1.185-0.531-1.185-1.185s0.531-1.185 1.185-1.185z"></path>
<path d="M17.778 29.63h13.037c0.655 0 1.185 0.531 1.185 1.185s-0.531 1.185-1.185 1.185h-13.037c-0.655 0-1.185-0.531-1.185-1.185s0.531-1.185 1.185-1.185z"></path>
<path d="M1.185 0h13.037c0.655 0 1.185 0.531 1.185 1.185s-0.531 1.185-1.185 1.185h-13.037c-0.655 0-1.185-0.531-1.185-1.185s0.531-1.185 1.185-1.185z"></path>
<path d="M17.778 0h13.037c0.655 0 1.185 0.531 1.185 1.185s-0.531 1.185-1.185 1.185h-13.037c-0.655 0-1.185-0.531-1.185-1.185s0.531-1.185 1.185-1.185z"></path>
<path d="M1.185 11.852h13.037c0.655 0 1.185 0.531 1.185 1.185s-0.531 1.185-1.185 1.185h-13.037c-0.655 0-1.185-0.531-1.185-1.185s0.531-1.185 1.185-1.185z"></path>
<path d="M17.778 11.852h13.037c0.655 0 1.185 0.531 1.185 1.185s-0.531 1.185-1.185 1.185h-13.037c-0.655 0-1.185-0.531-1.185-1.185s0.531-1.185 1.185-1.185z"></path>
<path d="M1.185 5.926h13.037c0.655 0 1.185 0.531 1.185 1.185s-0.531 1.185-1.185 1.185h-13.037c-0.655 0-1.185-0.531-1.185-1.185s0.531-1.185 1.185-1.185z"></path>
<path d="M17.778 5.926h13.037c0.655 0 1.185 0.531 1.185 1.185s-0.531 1.185-1.185 1.185h-13.037c-0.655 0-1.185-0.531-1.185-1.185s0.531-1.185 1.185-1.185z"></path>
</symbol>
<symbol id="icon-47" viewBox="0 0 32 32">
<path d="M1.185 23.704h29.63c0.655 0 1.185 0.531 1.185 1.185s-0.531 1.185-1.185 1.185h-29.63c-0.655 0-1.185-0.531-1.185-1.185s0.531-1.185 1.185-1.185z"></path>
<path d="M1.185 29.63h13.037c0.655 0 1.185 0.531 1.185 1.185s-0.531 1.185-1.185 1.185h-13.037c-0.655 0-1.185-0.531-1.185-1.185s0.531-1.185 1.185-1.185z"></path>
<path d="M17.778 29.63h13.037c0.655 0 1.185 0.531 1.185 1.185s-0.531 1.185-1.185 1.185h-13.037c-0.655 0-1.185-0.531-1.185-1.185s0.531-1.185 1.185-1.185z"></path>
<path d="M1.185 17.778h13.037c0.655 0 1.185 0.531 1.185 1.185s-0.531 1.185-1.185 1.185h-13.037c-0.655 0-1.185-0.531-1.185-1.185s0.531-1.185 1.185-1.185z"></path>
<path d="M17.778 17.778h13.037c0.655 0 1.185 0.531 1.185 1.185s-0.531 1.185-1.185 1.185h-13.037c-0.655 0-1.185-0.531-1.185-1.185s0.531-1.185 1.185-1.185z"></path>
<path d="M1.185 5.926h29.63c0.655 0 1.185 0.531 1.185 1.185s-0.531 1.185-1.185 1.185h-29.63c-0.655 0-1.185-0.531-1.185-1.185s0.531-1.185 1.185-1.185z"></path>
<path d="M1.185 11.852h29.63c0.655 0 1.185 0.531 1.185 1.185s-0.531 1.185-1.185 1.185h-29.63c-0.655 0-1.185-0.531-1.185-1.185s0.531-1.185 1.185-1.185z"></path>
<path d="M1.185 0h13.037c0.655 0 1.185 0.531 1.185 1.185s-0.531 1.185-1.185 1.185h-13.037c-0.655 0-1.185-0.531-1.185-1.185s0.531-1.185 1.185-1.185z"></path>
<path d="M17.778 0h13.037c0.655 0 1.185 0.531 1.185 1.185s-0.531 1.185-1.185 1.185h-13.037c-0.655 0-1.185-0.531-1.185-1.185s0.531-1.185 1.185-1.185z"></path>
</symbol>
<symbol id="icon-48" viewBox="0 0 32 32">
<path d="M1.185 5.926h29.63c0.655 0 1.185 0.531 1.185 1.185s-0.531 1.185-1.185 1.185h-29.63c-0.655 0-1.185-0.531-1.185-1.185s0.531-1.185 1.185-1.185z"></path>
<path d="M1.185 11.852h13.037c0.655 0 1.185 0.531 1.185 1.185s-0.531 1.185-1.185 1.185h-13.037c-0.655 0-1.185-0.531-1.185-1.185s0.531-1.185 1.185-1.185z"></path>
<path d="M17.778 11.852h13.037c0.655 0 1.185 0.531 1.185 1.185s-0.531 1.185-1.185 1.185h-13.037c-0.655 0-1.185-0.531-1.185-1.185s0.531-1.185 1.185-1.185z"></path>
<path d="M1.185 0h13.037c0.655 0 1.185 0.531 1.185 1.185s-0.531 1.185-1.185 1.185h-13.037c-0.655 0-1.185-0.531-1.185-1.185s0.531-1.185 1.185-1.185z"></path>
<path d="M17.778 0h13.037c0.655 0 1.185 0.531 1.185 1.185s-0.531 1.185-1.185 1.185h-13.037c-0.655 0-1.185-0.531-1.185-1.185s0.531-1.185 1.185-1.185z"></path>
<path d="M1.185 23.704h29.63c0.655 0 1.185 0.531 1.185 1.185s-0.531 1.185-1.185 1.185h-29.63c-0.655 0-1.185-0.531-1.185-1.185s0.531-1.185 1.185-1.185z"></path>
<path d="M1.185 17.778h29.63c0.655 0 1.185 0.531 1.185 1.185s-0.531 1.185-1.185 1.185h-29.63c-0.655 0-1.185-0.531-1.185-1.185s0.531-1.185 1.185-1.185z"></path>
<path d="M1.185 29.63h13.037c0.655 0 1.185 0.531 1.185 1.185s-0.531 1.185-1.185 1.185h-13.037c-0.655 0-1.185-0.531-1.185-1.185s0.531-1.185 1.185-1.185z"></path>
<path d="M17.778 29.63h13.037c0.655 0 1.185 0.531 1.185 1.185s-0.531 1.185-1.185 1.185h-13.037c-0.655 0-1.185-0.531-1.185-1.185s0.531-1.185 1.185-1.185z"></path>
</symbol>
<symbol id="icon-49" viewBox="0 0 32 32">
<path d="M1.185 29.63h29.63c0.655 0 1.185 0.531 1.185 1.185s-0.531 1.185-1.185 1.185h-29.63c-0.655 0-1.185-0.531-1.185-1.185s0.531-1.185 1.185-1.185z"></path>
<path d="M1.185 17.778h29.63c0.655 0 1.185 0.531 1.185 1.185s-0.531 1.185-1.185 1.185h-29.63c-0.655 0-1.185-0.531-1.185-1.185s0.531-1.185 1.185-1.185z"></path>
<path d="M1.185 23.704h13.037c0.655 0 1.185 0.531 1.185 1.185s-0.531 1.185-1.185 1.185h-13.037c-0.655 0-1.185-0.531-1.185-1.185s0.531-1.185 1.185-1.185z"></path>
<path d="M17.778 23.704h13.037c0.655 0 1.185 0.531 1.185 1.185s-0.531 1.185-1.185 1.185h-13.037c-0.655 0-1.185-0.531-1.185-1.185s0.531-1.185 1.185-1.185z"></path>
<path d="M1.185 5.926h29.63c0.655 0 1.185 0.531 1.185 1.185s-0.531 1.185-1.185 1.185h-29.63c-0.655 0-1.185-0.531-1.185-1.185s0.531-1.185 1.185-1.185z"></path>
<path d="M1.185 11.852h29.63c0.655 0 1.185 0.531 1.185 1.185s-0.531 1.185-1.185 1.185h-29.63c-0.655 0-1.185-0.531-1.185-1.185s0.531-1.185 1.185-1.185z"></path>
<path d="M1.185 0h13.037c0.655 0 1.185 0.531 1.185 1.185s-0.531 1.185-1.185 1.185h-13.037c-0.655 0-1.185-0.531-1.185-1.185s0.531-1.185 1.185-1.185z"></path>
<path d="M17.778 0h13.037c0.655 0 1.185 0.531 1.185 1.185s-0.531 1.185-1.185 1.185h-13.037c-0.655 0-1.185-0.531-1.185-1.185s0.531-1.185 1.185-1.185z"></path>
</symbol>
<symbol id="icon-50" viewBox="0 0 32 32">
<path d="M1.185 23.704h29.63c0.655 0 1.185 0.531 1.185 1.185s-0.531 1.185-1.185 1.185h-29.63c-0.655 0-1.185-0.531-1.185-1.185s0.531-1.185 1.185-1.185z"></path>
<path d="M1.185 17.778h29.63c0.655 0 1.185 0.531 1.185 1.185s-0.531 1.185-1.185 1.185h-29.63c-0.655 0-1.185-0.531-1.185-1.185s0.531-1.185 1.185-1.185z"></path>
<path d="M1.185 29.63h13.037c0.655 0 1.185 0.531 1.185 1.185s-0.531 1.185-1.185 1.185h-13.037c-0.655 0-1.185-0.531-1.185-1.185s0.531-1.185 1.185-1.185z"></path>
<path d="M17.778 29.63h13.037c0.655 0 1.185 0.531 1.185 1.185s-0.531 1.185-1.185 1.185h-13.037c-0.655 0-1.185-0.531-1.185-1.185s0.531-1.185 1.185-1.185z"></path>
<path d="M1.185 11.852h29.63c0.655 0 1.185 0.531 1.185 1.185s-0.531 1.185-1.185 1.185h-29.63c-0.655 0-1.185-0.531-1.185-1.185s0.531-1.185 1.185-1.185z"></path>
<path d="M1.185 0h29.63c0.655 0 1.185 0.531 1.185 1.185s-0.531 1.185-1.185 1.185h-29.63c-0.655 0-1.185-0.531-1.185-1.185s0.531-1.185 1.185-1.185z"></path>
<path d="M1.185 5.926h13.037c0.655 0 1.185 0.531 1.185 1.185s-0.531 1.185-1.185 1.185h-13.037c-0.655 0-1.185-0.531-1.185-1.185s0.531-1.185 1.185-1.185z"></path>
<path d="M17.778 5.926h13.037c0.655 0 1.185 0.531 1.185 1.185s-0.531 1.185-1.185 1.185h-13.037c-0.655 0-1.185-0.531-1.185-1.185s0.531-1.185 1.185-1.185z"></path>
</symbol>
<symbol id="icon-51" viewBox="0 0 32 32">
<path d="M1.185 29.63h29.63c0.655 0 1.185 0.531 1.185 1.185s-0.531 1.185-1.185 1.185h-29.63c-0.655 0-1.185-0.531-1.185-1.185s0.531-1.185 1.185-1.185z"></path>
<path d="M1.185 17.778h13.037c0.655 0 1.185 0.531 1.185 1.185s-0.531 1.185-1.185 1.185h-13.037c-0.655 0-1.185-0.531-1.185-1.185s0.531-1.185 1.185-1.185z"></path>
<path d="M17.778 17.778h13.037c0.655 0 1.185 0.531 1.185 1.185s-0.531 1.185-1.185 1.185h-13.037c-0.655 0-1.185-0.531-1.185-1.185s0.531-1.185 1.185-1.185z"></path>
<path d="M1.185 23.704h13.037c0.655 0 1.185 0.531 1.185 1.185s-0.531 1.185-1.185 1.185h-13.037c-0.655 0-1.185-0.531-1.185-1.185s0.531-1.185 1.185-1.185z"></path>
<path d="M17.778 23.704h13.037c0.655 0 1.185 0.531 1.185 1.185s-0.531 1.185-1.185 1.185h-13.037c-0.655 0-1.185-0.531-1.185-1.185s0.531-1.185 1.185-1.185z"></path>
<path d="M1.185 11.852h29.63c0.655 0 1.185 0.531 1.185 1.185s-0.531 1.185-1.185 1.185h-29.63c-0.655 0-1.185-0.531-1.185-1.185s0.531-1.185 1.185-1.185z"></path>
<path d="M1.185 0h13.037c0.655 0 1.185 0.531 1.185 1.185s-0.531 1.185-1.185 1.185h-13.037c-0.655 0-1.185-0.531-1.185-1.185s0.531-1.185 1.185-1.185z"></path>
<path d="M17.778 0h13.037c0.655 0 1.185 0.531 1.185 1.185s-0.531 1.185-1.185 1.185h-13.037c-0.655 0-1.185-0.531-1.185-1.185s0.531-1.185 1.185-1.185z"></path>
<path d="M1.185 5.926h13.037c0.655 0 1.185 0.531 1.185 1.185s-0.531 1.185-1.185 1.185h-13.037c-0.655 0-1.185-0.531-1.185-1.185s0.531-1.185 1.185-1.185z"></path>
<path d="M17.778 5.926h13.037c0.655 0 1.185 0.531 1.185 1.185s-0.531 1.185-1.185 1.185h-13.037c-0.655 0-1.185-0.531-1.185-1.185s0.531-1.185 1.185-1.185z"></path>
</symbol>
<symbol id="icon-52" viewBox="0 0 32 32">
<path d="M1.185 17.778h29.63c0.655 0 1.185 0.531 1.185 1.185s-0.531 1.185-1.185 1.185h-29.63c-0.655 0-1.185-0.531-1.185-1.185s0.531-1.185 1.185-1.185z"></path>
<path d="M1.185 23.704h13.037c0.655 0 1.185 0.531 1.185 1.185s-0.531 1.185-1.185 1.185h-13.037c-0.655 0-1.185-0.531-1.185-1.185s0.531-1.185 1.185-1.185z"></path>
<path d="M17.778 23.704h13.037c0.655 0 1.185 0.531 1.185 1.185s-0.531 1.185-1.185 1.185h-13.037c-0.655 0-1.185-0.531-1.185-1.185s0.531-1.185 1.185-1.185z"></path>
<path d="M1.185 29.63h13.037c0.655 0 1.185 0.531 1.185 1.185s-0.531 1.185-1.185 1.185h-13.037c-0.655 0-1.185-0.531-1.185-1.185s0.531-1.185 1.185-1.185z"></path>
<path d="M17.778 29.63h13.037c0.655 0 1.185 0.531 1.185 1.185s-0.531 1.185-1.185 1.185h-13.037c-0.655 0-1.185-0.531-1.185-1.185s0.531-1.185 1.185-1.185z"></path>
<path d="M1.185 0h29.63c0.655 0 1.185 0.531 1.185 1.185s-0.531 1.185-1.185 1.185h-29.63c-0.655 0-1.185-0.531-1.185-1.185s0.531-1.185 1.185-1.185z"></path>
<path d="M1.185 5.926h13.037c0.655 0 1.185 0.531 1.185 1.185s-0.531 1.185-1.185 1.185h-13.037c-0.655 0-1.185-0.531-1.185-1.185s0.531-1.185 1.185-1.185z"></path>
<path d="M17.778 5.926h13.037c0.655 0 1.185 0.531 1.185 1.185s-0.531 1.185-1.185 1.185h-13.037c-0.655 0-1.185-0.531-1.185-1.185s0.531-1.185 1.185-1.185z"></path>
<path d="M1.185 11.852h13.037c0.655 0 1.185 0.531 1.185 1.185s-0.531 1.185-1.185 1.185h-13.037c-0.655 0-1.185-0.531-1.185-1.185s0.531-1.185 1.185-1.185z"></path>
<path d="M17.778 11.852h13.037c0.655 0 1.185 0.531 1.185 1.185s-0.531 1.185-1.185 1.185h-13.037c-0.655 0-1.185-0.531-1.185-1.185s0.531-1.185 1.185-1.185z"></path>
</symbol>
<symbol id="icon-53" viewBox="0 0 32 32">
<path d="M1.185 17.778h29.63c0.655 0 1.185 0.531 1.185 1.185s-0.531 1.185-1.185 1.185h-29.63c-0.655 0-1.185-0.531-1.185-1.185s0.531-1.185 1.185-1.185z"></path>
<path d="M1.185 23.704h13.037c0.655 0 1.185 0.531 1.185 1.185s-0.531 1.185-1.185 1.185h-13.037c-0.655 0-1.185-0.531-1.185-1.185s0.531-1.185 1.185-1.185z"></path>
<path d="M17.778 23.704h13.037c0.655 0 1.185 0.531 1.185 1.185s-0.531 1.185-1.185 1.185h-13.037c-0.655 0-1.185-0.531-1.185-1.185s0.531-1.185 1.185-1.185z"></path>
<path d="M1.185 29.63h13.037c0.655 0 1.185 0.531 1.185 1.185s-0.531 1.185-1.185 1.185h-13.037c-0.655 0-1.185-0.531-1.185-1.185s0.531-1.185 1.185-1.185z"></path>
<path d="M17.778 29.63h13.037c0.655 0 1.185 0.531 1.185 1.185s-0.531 1.185-1.185 1.185h-13.037c-0.655 0-1.185-0.531-1.185-1.185s0.531-1.185 1.185-1.185z"></path>
<path d="M1.185 5.926h29.63c0.655 0 1.185 0.531 1.185 1.185s-0.531 1.185-1.185 1.185h-29.63c-0.655 0-1.185-0.531-1.185-1.185s0.531-1.185 1.185-1.185z"></path>
<path d="M1.185 0h29.63c0.655 0 1.185 0.531 1.185 1.185s-0.531 1.185-1.185 1.185h-29.63c-0.655 0-1.185-0.531-1.185-1.185s0.531-1.185 1.185-1.185z"></path>
<path d="M1.185 11.852h13.037c0.655 0 1.185 0.531 1.185 1.185s-0.531 1.185-1.185 1.185h-13.037c-0.655 0-1.185-0.531-1.185-1.185s0.531-1.185 1.185-1.185z"></path>
<path d="M17.778 11.852h13.037c0.655 0 1.185 0.531 1.185 1.185s-0.531 1.185-1.185 1.185h-13.037c-0.655 0-1.185-0.531-1.185-1.185s0.531-1.185 1.185-1.185z"></path>
</symbol>
<symbol id="icon-54" viewBox="0 0 32 32">
<path d="M1.185 11.852h29.63c0.655 0 1.185 0.531 1.185 1.185s-0.531 1.185-1.185 1.185h-29.63c-0.655 0-1.185-0.531-1.185-1.185s0.531-1.185 1.185-1.185z"></path>
<path d="M1.185 0h13.037c0.655 0 1.185 0.531 1.185 1.185s-0.531 1.185-1.185 1.185h-13.037c-0.655 0-1.185-0.531-1.185-1.185s0.531-1.185 1.185-1.185z"></path>
<path d="M17.778 0h13.037c0.655 0 1.185 0.531 1.185 1.185s-0.531 1.185-1.185 1.185h-13.037c-0.655 0-1.185-0.531-1.185-1.185s0.531-1.185 1.185-1.185z"></path>
<path d="M1.185 5.926h13.037c0.655 0 1.185 0.531 1.185 1.185s-0.531 1.185-1.185 1.185h-13.037c-0.655 0-1.185-0.531-1.185-1.185s0.531-1.185 1.185-1.185z"></path>
<path d="M17.778 5.926h13.037c0.655 0 1.185 0.531 1.185 1.185s-0.531 1.185-1.185 1.185h-13.037c-0.655 0-1.185-0.531-1.185-1.185s0.531-1.185 1.185-1.185z"></path>
<path d="M1.185 23.704h29.63c0.655 0 1.185 0.531 1.185 1.185s-0.531 1.185-1.185 1.185h-29.63c-0.655 0-1.185-0.531-1.185-1.185s0.531-1.185 1.185-1.185z"></path>
<path d="M1.185 29.63h29.63c0.655 0 1.185 0.531 1.185 1.185s-0.531 1.185-1.185 1.185h-29.63c-0.655 0-1.185-0.531-1.185-1.185s0.531-1.185 1.185-1.185z"></path>
<path d="M1.185 17.778h13.037c0.655 0 1.185 0.531 1.185 1.185s-0.531 1.185-1.185 1.185h-13.037c-0.655 0-1.185-0.531-1.185-1.185s0.531-1.185 1.185-1.185z"></path>
<path d="M17.778 17.778h13.037c0.655 0 1.185 0.531 1.185 1.185s-0.531 1.185-1.185 1.185h-13.037c-0.655 0-1.185-0.531-1.185-1.185s0.531-1.185 1.185-1.185z"></path>
</symbol>
<symbol id="icon-55" viewBox="0 0 32 32">
<path d="M1.185 11.852h29.63c0.655 0 1.185 0.531 1.185 1.185s-0.531 1.185-1.185 1.185h-29.63c-0.655 0-1.185-0.531-1.185-1.185s0.531-1.185 1.185-1.185z"></path>
<path d="M1.185 0h13.037c0.655 0 1.185 0.531 1.185 1.185s-0.531 1.185-1.185 1.185h-13.037c-0.655 0-1.185-0.531-1.185-1.185s0.531-1.185 1.185-1.185z"></path>
<path d="M17.778 0h13.037c0.655 0 1.185 0.531 1.185 1.185s-0.531 1.185-1.185 1.185h-13.037c-0.655 0-1.185-0.531-1.185-1.185s0.531-1.185 1.185-1.185z"></path>
<path d="M1.185 5.926h13.037c0.655 0 1.185 0.531 1.185 1.185s-0.531 1.185-1.185 1.185h-13.037c-0.655 0-1.185-0.531-1.185-1.185s0.531-1.185 1.185-1.185z"></path>
<path d="M17.778 5.926h13.037c0.655 0 1.185 0.531 1.185 1.185s-0.531 1.185-1.185 1.185h-13.037c-0.655 0-1.185-0.531-1.185-1.185s0.531-1.185 1.185-1.185z"></path>
<path d="M1.185 29.63h29.63c0.655 0 1.185 0.531 1.185 1.185s-0.531 1.185-1.185 1.185h-29.63c-0.655 0-1.185-0.531-1.185-1.185s0.531-1.185 1.185-1.185z"></path>
<path d="M1.185 17.778h29.63c0.655 0 1.185 0.531 1.185 1.185s-0.531 1.185-1.185 1.185h-29.63c-0.655 0-1.185-0.531-1.185-1.185s0.531-1.185 1.185-1.185z"></path>
<path d="M1.185 23.704h13.037c0.655 0 1.185 0.531 1.185 1.185s-0.531 1.185-1.185 1.185h-13.037c-0.655 0-1.185-0.531-1.185-1.185s0.531-1.185 1.185-1.185z"></path>
<path d="M17.778 23.704h13.037c0.655 0 1.185 0.531 1.185 1.185s-0.531 1.185-1.185 1.185h-13.037c-0.655 0-1.185-0.531-1.185-1.185s0.531-1.185 1.185-1.185z"></path>
</symbol>
<symbol id="icon-56" viewBox="0 0 32 32">
<path d="M1.185 17.778h29.63c0.655 0 1.185 0.531 1.185 1.185s-0.531 1.185-1.185 1.185h-29.63c-0.655 0-1.185-0.531-1.185-1.185s0.531-1.185 1.185-1.185z"></path>
<path d="M1.185 23.704h13.037c0.655 0 1.185 0.531 1.185 1.185s-0.531 1.185-1.185 1.185h-13.037c-0.655 0-1.185-0.531-1.185-1.185s0.531-1.185 1.185-1.185z"></path>
<path d="M17.778 23.704h13.037c0.655 0 1.185 0.531 1.185 1.185s-0.531 1.185-1.185 1.185h-13.037c-0.655 0-1.185-0.531-1.185-1.185s0.531-1.185 1.185-1.185z"></path>
<path d="M1.185 29.63h13.037c0.655 0 1.185 0.531 1.185 1.185s-0.531 1.185-1.185 1.185h-13.037c-0.655 0-1.185-0.531-1.185-1.185s0.531-1.185 1.185-1.185z"></path>
<path d="M17.778 29.63h13.037c0.655 0 1.185 0.531 1.185 1.185s-0.531 1.185-1.185 1.185h-13.037c-0.655 0-1.185-0.531-1.185-1.185s0.531-1.185 1.185-1.185z"></path>
<path d="M1.185 11.852h29.63c0.655 0 1.185 0.531 1.185 1.185s-0.531 1.185-1.185 1.185h-29.63c-0.655 0-1.185-0.531-1.185-1.185s0.531-1.185 1.185-1.185z"></path>
<path d="M1.185 0h29.63c0.655 0 1.185 0.531 1.185 1.185s-0.531 1.185-1.185 1.185h-29.63c-0.655 0-1.185-0.531-1.185-1.185s0.531-1.185 1.185-1.185z"></path>
<path d="M1.185 5.926h13.037c0.655 0 1.185 0.531 1.185 1.185s-0.531 1.185-1.185 1.185h-13.037c-0.655 0-1.185-0.531-1.185-1.185s0.531-1.185 1.185-1.185z"></path>
<path d="M17.778 5.926h13.037c0.655 0 1.185 0.531 1.185 1.185s-0.531 1.185-1.185 1.185h-13.037c-0.655 0-1.185-0.531-1.185-1.185s0.531-1.185 1.185-1.185z"></path>
</symbol>
<symbol id="icon-57" viewBox="0 0 32 32">
<path d="M1.185 23.704h29.63c0.655 0 1.185 0.531 1.185 1.185s-0.531 1.185-1.185 1.185h-29.63c-0.655 0-1.185-0.531-1.185-1.185s0.531-1.185 1.185-1.185z"></path>
<path d="M1.185 17.778h29.63c0.655 0 1.185 0.531 1.185 1.185s-0.531 1.185-1.185 1.185h-29.63c-0.655 0-1.185-0.531-1.185-1.185s0.531-1.185 1.185-1.185z"></path>
<path d="M1.185 29.63h13.037c0.655 0 1.185 0.531 1.185 1.185s-0.531 1.185-1.185 1.185h-13.037c-0.655 0-1.185-0.531-1.185-1.185s0.531-1.185 1.185-1.185z"></path>
<path d="M17.778 29.63h13.037c0.655 0 1.185 0.531 1.185 1.185s-0.531 1.185-1.185 1.185h-13.037c-0.655 0-1.185-0.531-1.185-1.185s0.531-1.185 1.185-1.185z"></path>
<path d="M1.185 5.926h29.63c0.655 0 1.185 0.531 1.185 1.185s-0.531 1.185-1.185 1.185h-29.63c-0.655 0-1.185-0.531-1.185-1.185s0.531-1.185 1.185-1.185z"></path>
<path d="M1.185 0h29.63c0.655 0 1.185 0.531 1.185 1.185s-0.531 1.185-1.185 1.185h-29.63c-0.655 0-1.185-0.531-1.185-1.185s0.531-1.185 1.185-1.185z"></path>
<path d="M1.185 11.852h13.037c0.655 0 1.185 0.531 1.185 1.185s-0.531 1.185-1.185 1.185h-13.037c-0.655 0-1.185-0.531-1.185-1.185s0.531-1.185 1.185-1.185z"></path>
<path d="M17.778 11.852h13.037c0.655 0 1.185 0.531 1.185 1.185s-0.531 1.185-1.185 1.185h-13.037c-0.655 0-1.185-0.531-1.185-1.185s0.531-1.185 1.185-1.185z"></path>
</symbol>
<symbol id="icon-58" viewBox="0 0 32 32">
<path d="M1.185 23.704h29.63c0.655 0 1.185 0.531 1.185 1.185s-0.531 1.185-1.185 1.185h-29.63c-0.655 0-1.185-0.531-1.185-1.185s0.531-1.185 1.185-1.185z"></path>
<path d="M1.185 29.63h29.63c0.655 0 1.185 0.531 1.185 1.185s-0.531 1.185-1.185 1.185h-29.63c-0.655 0-1.185-0.531-1.185-1.185s0.531-1.185 1.185-1.185z"></path>
<path d="M1.185 17.778h13.037c0.655 0 1.185 0.531 1.185 1.185s-0.531 1.185-1.185 1.185h-13.037c-0.655 0-1.185-0.531-1.185-1.185s0.531-1.185 1.185-1.185z"></path>
<path d="M17.778 17.778h13.037c0.655 0 1.185 0.531 1.185 1.185s-0.531 1.185-1.185 1.185h-13.037c-0.655 0-1.185-0.531-1.185-1.185s0.531-1.185 1.185-1.185z"></path>
<path d="M1.185 5.926h29.63c0.655 0 1.185 0.531 1.185 1.185s-0.531 1.185-1.185 1.185h-29.63c-0.655 0-1.185-0.531-1.185-1.185s0.531-1.185 1.185-1.185z"></path>
<path d="M1.185 11.852h29.63c0.655 0 1.185 0.531 1.185 1.185s-0.531 1.185-1.185 1.185h-29.63c-0.655 0-1.185-0.531-1.185-1.185s0.531-1.185 1.185-1.185z"></path>
<path d="M1.185 0h13.037c0.655 0 1.185 0.531 1.185 1.185s-0.531 1.185-1.185 1.185h-13.037c-0.655 0-1.185-0.531-1.185-1.185s0.531-1.185 1.185-1.185z"></path>
<path d="M17.778 0h13.037c0.655 0 1.185 0.531 1.185 1.185s-0.531 1.185-1.185 1.185h-13.037c-0.655 0-1.185-0.531-1.185-1.185s0.531-1.185 1.185-1.185z"></path>
</symbol>
<symbol id="icon-59" viewBox="0 0 32 32">
<path d="M1.185 23.704h29.63c0.655 0 1.185 0.531 1.185 1.185s-0.531 1.185-1.185 1.185h-29.63c-0.655 0-1.185-0.531-1.185-1.185s0.531-1.185 1.185-1.185z"></path>
<path d="M1.185 29.63h13.037c0.655 0 1.185 0.531 1.185 1.185s-0.531 1.185-1.185 1.185h-13.037c-0.655 0-1.185-0.531-1.185-1.185s0.531-1.185 1.185-1.185z"></path>
<path d="M17.778 29.63h13.037c0.655 0 1.185 0.531 1.185 1.185s-0.531 1.185-1.185 1.185h-13.037c-0.655 0-1.185-0.531-1.185-1.185s0.531-1.185 1.185-1.185z"></path>
<path d="M1.185 17.778h13.037c0.655 0 1.185 0.531 1.185 1.185s-0.531 1.185-1.185 1.185h-13.037c-0.655 0-1.185-0.531-1.185-1.185s0.531-1.185 1.185-1.185z"></path>
<path d="M17.778 17.778h13.037c0.655 0 1.185 0.531 1.185 1.185s-0.531 1.185-1.185 1.185h-13.037c-0.655 0-1.185-0.531-1.185-1.185s0.531-1.185 1.185-1.185z"></path>
<path d="M1.185 5.926h29.63c0.655 0 1.185 0.531 1.185 1.185s-0.531 1.185-1.185 1.185h-29.63c-0.655 0-1.185-0.531-1.185-1.185s0.531-1.185 1.185-1.185z"></path>
<path d="M1.185 0h29.63c0.655 0 1.185 0.531 1.185 1.185s-0.531 1.185-1.185 1.185h-29.63c-0.655 0-1.185-0.531-1.185-1.185s0.531-1.185 1.185-1.185z"></path>
<path d="M1.185 11.852h13.037c0.655 0 1.185 0.531 1.185 1.185s-0.531 1.185-1.185 1.185h-13.037c-0.655 0-1.185-0.531-1.185-1.185s0.531-1.185 1.185-1.185z"></path>
<path d="M17.778 11.852h13.037c0.655 0 1.185 0.531 1.185 1.185s-0.531 1.185-1.185 1.185h-13.037c-0.655 0-1.185-0.531-1.185-1.185s0.531-1.185 1.185-1.185z"></path>
</symbol>
<symbol id="icon-60" viewBox="0 0 32 32">
<path d="M1.185 5.926h29.63c0.655 0 1.185 0.531 1.185 1.185s-0.531 1.185-1.185 1.185h-29.63c-0.655 0-1.185-0.531-1.185-1.185s0.531-1.185 1.185-1.185z"></path>
<path d="M1.185 11.852h13.037c0.655 0 1.185 0.531 1.185 1.185s-0.531 1.185-1.185 1.185h-13.037c-0.655 0-1.185-0.531-1.185-1.185s0.531-1.185 1.185-1.185z"></path>
<path d="M17.778 11.852h13.037c0.655 0 1.185 0.531 1.185 1.185s-0.531 1.185-1.185 1.185h-13.037c-0.655 0-1.185-0.531-1.185-1.185s0.531-1.185 1.185-1.185z"></path>
<path d="M1.185 0h13.037c0.655 0 1.185 0.531 1.185 1.185s-0.531 1.185-1.185 1.185h-13.037c-0.655 0-1.185-0.531-1.185-1.185s0.531-1.185 1.185-1.185z"></path>
<path d="M17.778 0h13.037c0.655 0 1.185 0.531 1.185 1.185s-0.531 1.185-1.185 1.185h-13.037c-0.655 0-1.185-0.531-1.185-1.185s0.531-1.185 1.185-1.185z"></path>
<path d="M1.185 23.704h29.63c0.655 0 1.185 0.531 1.185 1.185s-0.531 1.185-1.185 1.185h-29.63c-0.655 0-1.185-0.531-1.185-1.185s0.531-1.185 1.185-1.185z"></path>
<path d="M1.185 29.63h29.63c0.655 0 1.185 0.531 1.185 1.185s-0.531 1.185-1.185 1.185h-29.63c-0.655 0-1.185-0.531-1.185-1.185s0.531-1.185 1.185-1.185z"></path>
<path d="M1.185 17.778h13.037c0.655 0 1.185 0.531 1.185 1.185s-0.531 1.185-1.185 1.185h-13.037c-0.655 0-1.185-0.531-1.185-1.185s0.531-1.185 1.185-1.185z"></path>
<path d="M17.778 17.778h13.037c0.655 0 1.185 0.531 1.185 1.185s-0.531 1.185-1.185 1.185h-13.037c-0.655 0-1.185-0.531-1.185-1.185s0.531-1.185 1.185-1.185z"></path>
</symbol>
<symbol id="icon-61" viewBox="0 0 32 32">
<path d="M1.185 5.926h29.63c0.655 0 1.185 0.531 1.185 1.185s-0.531 1.185-1.185 1.185h-29.63c-0.655 0-1.185-0.531-1.185-1.185s0.531-1.185 1.185-1.185z"></path>
<path d="M1.185 0h29.63c0.655 0 1.185 0.531 1.185 1.185s-0.531 1.185-1.185 1.185h-29.63c-0.655 0-1.185-0.531-1.185-1.185s0.531-1.185 1.185-1.185z"></path>
<path d="M1.185 11.852h13.037c0.655 0 1.185 0.531 1.185 1.185s-0.531 1.185-1.185 1.185h-13.037c-0.655 0-1.185-0.531-1.185-1.185s0.531-1.185 1.185-1.185z"></path>
<path d="M17.778 11.852h13.037c0.655 0 1.185 0.531 1.185 1.185s-0.531 1.185-1.185 1.185h-13.037c-0.655 0-1.185-0.531-1.185-1.185s0.531-1.185 1.185-1.185z"></path>
<path d="M1.185 23.704h29.63c0.655 0 1.185 0.531 1.185 1.185s-0.531 1.185-1.185 1.185h-29.63c-0.655 0-1.185-0.531-1.185-1.185s0.531-1.185 1.185-1.185z"></path>
<path d="M1.185 29.63h29.63c0.655 0 1.185 0.531 1.185 1.185s-0.531 1.185-1.185 1.185h-29.63c-0.655 0-1.185-0.531-1.185-1.185s0.531-1.185 1.185-1.185z"></path>
<path d="M1.185 17.778h13.037c0.655 0 1.185 0.531 1.185 1.185s-0.531 1.185-1.185 1.185h-13.037c-0.655 0-1.185-0.531-1.185-1.185s0.531-1.185 1.185-1.185z"></path>
<path d="M17.778 17.778h13.037c0.655 0 1.185 0.531 1.185 1.185s-0.531 1.185-1.185 1.185h-13.037c-0.655 0-1.185-0.531-1.185-1.185s0.531-1.185 1.185-1.185z"></path>
</symbol>
<symbol id="icon-62" viewBox="0 0 32 32">
<path d="M1.185 17.778h29.63c0.655 0 1.185 0.531 1.185 1.185s-0.531 1.185-1.185 1.185h-29.63c-0.655 0-1.185-0.531-1.185-1.185s0.531-1.185 1.185-1.185z"></path>
<path d="M1.185 23.704h13.037c0.655 0 1.185 0.531 1.185 1.185s-0.531 1.185-1.185 1.185h-13.037c-0.655 0-1.185-0.531-1.185-1.185s0.531-1.185 1.185-1.185z"></path>
<path d="M17.778 23.704h13.037c0.655 0 1.185 0.531 1.185 1.185s-0.531 1.185-1.185 1.185h-13.037c-0.655 0-1.185-0.531-1.185-1.185s0.531-1.185 1.185-1.185z"></path>
<path d="M1.185 29.63h13.037c0.655 0 1.185 0.531 1.185 1.185s-0.531 1.185-1.185 1.185h-13.037c-0.655 0-1.185-0.531-1.185-1.185s0.531-1.185 1.185-1.185z"></path>
<path d="M17.778 29.63h13.037c0.655 0 1.185 0.531 1.185 1.185s-0.531 1.185-1.185 1.185h-13.037c-0.655 0-1.185-0.531-1.185-1.185s0.531-1.185 1.185-1.185z"></path>
<path d="M1.185 11.852h29.63c0.655 0 1.185 0.531 1.185 1.185s-0.531 1.185-1.185 1.185h-29.63c-0.655 0-1.185-0.531-1.185-1.185s0.531-1.185 1.185-1.185z"></path>
<path d="M1.185 0h13.037c0.655 0 1.185 0.531 1.185 1.185s-0.531 1.185-1.185 1.185h-13.037c-0.655 0-1.185-0.531-1.185-1.185s0.531-1.185 1.185-1.185z"></path>
<path d="M17.778 0h13.037c0.655 0 1.185 0.531 1.185 1.185s-0.531 1.185-1.185 1.185h-13.037c-0.655 0-1.185-0.531-1.185-1.185s0.531-1.185 1.185-1.185z"></path>
<path d="M1.185 5.926h13.037c0.655 0 1.185 0.531 1.185 1.185s-0.531 1.185-1.185 1.185h-13.037c-0.655 0-1.185-0.531-1.185-1.185s0.531-1.185 1.185-1.185z"></path>
<path d="M17.778 5.926h13.037c0.655 0 1.185 0.531 1.185 1.185s-0.531 1.185-1.185 1.185h-13.037c-0.655 0-1.185-0.531-1.185-1.185s0.531-1.185 1.185-1.185z"></path>
</symbol>
<symbol id="icon-63" viewBox="0 0 32 32">
<path d="M1.185 5.926h29.63c0.655 0 1.185 0.531 1.185 1.185s-0.531 1.185-1.185 1.185h-29.63c-0.655 0-1.185-0.531-1.185-1.185s0.531-1.185 1.185-1.185z"></path>
<path d="M1.185 11.852h13.037c0.655 0 1.185 0.531 1.185 1.185s-0.531 1.185-1.185 1.185h-13.037c-0.655 0-1.185-0.531-1.185-1.185s0.531-1.185 1.185-1.185z"></path>
<path d="M17.778 11.852h13.037c0.655 0 1.185 0.531 1.185 1.185s-0.531 1.185-1.185 1.185h-13.037c-0.655 0-1.185-0.531-1.185-1.185s0.531-1.185 1.185-1.185z"></path>
<path d="M1.185 0h13.037c0.655 0 1.185 0.531 1.185 1.185s-0.531 1.185-1.185 1.185h-13.037c-0.655 0-1.185-0.531-1.185-1.185s0.531-1.185 1.185-1.185z"></path>
<path d="M17.778 0h13.037c0.655 0 1.185 0.531 1.185 1.185s-0.531 1.185-1.185 1.185h-13.037c-0.655 0-1.185-0.531-1.185-1.185s0.531-1.185 1.185-1.185z"></path>
<path d="M1.185 29.63h29.63c0.655 0 1.185 0.531 1.185 1.185s-0.531 1.185-1.185 1.185h-29.63c-0.655 0-1.185-0.531-1.185-1.185s0.531-1.185 1.185-1.185z"></path>
<path d="M1.185 17.778h29.63c0.655 0 1.185 0.531 1.185 1.185s-0.531 1.185-1.185 1.185h-29.63c-0.655 0-1.185-0.531-1.185-1.185s0.531-1.185 1.185-1.185z"></path>
<path d="M1.185 23.704h13.037c0.655 0 1.185 0.531 1.185 1.185s-0.531 1.185-1.185 1.185h-13.037c-0.655 0-1.185-0.531-1.185-1.185s0.531-1.185 1.185-1.185z"></path>
<path d="M17.778 23.704h13.037c0.655 0 1.185 0.531 1.185 1.185s-0.531 1.185-1.185 1.185h-13.037c-0.655 0-1.185-0.531-1.185-1.185s0.531-1.185 1.185-1.185z"></path>
</symbol>
<symbol id="icon-64" viewBox="0 0 32 32">
<path d="M1.185 23.704h29.63c0.655 0 1.185 0.531 1.185 1.185s-0.531 1.185-1.185 1.185h-29.63c-0.655 0-1.185-0.531-1.185-1.185s0.531-1.185 1.185-1.185z"></path>
<path d="M1.185 29.63h13.037c0.655 0 1.185 0.531 1.185 1.185s-0.531 1.185-1.185 1.185h-13.037c-0.655 0-1.185-0.531-1.185-1.185s0.531-1.185 1.185-1.185z"></path>
<path d="M17.778 29.63h13.037c0.655 0 1.185 0.531 1.185 1.185s-0.531 1.185-1.185 1.185h-13.037c-0.655 0-1.185-0.531-1.185-1.185s0.531-1.185 1.185-1.185z"></path>
<path d="M1.185 17.778h13.037c0.655 0 1.185 0.531 1.185 1.185s-0.531 1.185-1.185 1.185h-13.037c-0.655 0-1.185-0.531-1.185-1.185s0.531-1.185 1.185-1.185z"></path>
<path d="M17.778 17.778h13.037c0.655 0 1.185 0.531 1.185 1.185s-0.531 1.185-1.185 1.185h-13.037c-0.655 0-1.185-0.531-1.185-1.185s0.531-1.185 1.185-1.185z"></path>
<path d="M1.185 11.852h29.63c0.655 0 1.185 0.531 1.185 1.185s-0.531 1.185-1.185 1.185h-29.63c-0.655 0-1.185-0.531-1.185-1.185s0.531-1.185 1.185-1.185z"></path>
<path d="M1.185 0h29.63c0.655 0 1.185 0.531 1.185 1.185s-0.531 1.185-1.185 1.185h-29.63c-0.655 0-1.185-0.531-1.185-1.185s0.531-1.185 1.185-1.185z"></path>
<path d="M1.185 5.926h13.037c0.655 0 1.185 0.531 1.185 1.185s-0.531 1.185-1.185 1.185h-13.037c-0.655 0-1.185-0.531-1.185-1.185s0.531-1.185 1.185-1.185z"></path>
<path d="M17.778 5.926h13.037c0.655 0 1.185 0.531 1.185 1.185s-0.531 1.185-1.185 1.185h-13.037c-0.655 0-1.185-0.531-1.185-1.185s0.531-1.185 1.185-1.185z"></path>
</symbol>
</defs>
</svg>
